<svg xmlns="http://www.w3.org/2000/svg" version="1.1" xmlns:xlink="http://www.w3.org/1999/xlink" xmlns:svgjs="http://svgjs.dev/svgjs" width="2000" height="712" viewBox="0 0 2000 712"><g transform="matrix(1,0,0,1,-1.2121212121212466,1.0116042125201261)"><svg viewBox="0 0 396 141" data-background-color="#000000" preserveAspectRatio="xMidYMid meet" height="712" width="2000" xmlns="http://www.w3.org/2000/svg" xmlns:xlink="http://www.w3.org/1999/xlink"><g id="tight-bounds" transform="matrix(1,0,0,1,0.2400000000000091,-0.20033173309738572)"><svg viewBox="0 0 395.52 141.40066346619477" height="141.40066346619477" width="395.52"><g><svg viewBox="0 0 395.52 141.40066346619477" height="141.40066346619477" width="395.52"><g><svg viewBox="0 0 395.52 141.40066346619477" height="141.40066346619477" width="395.52"><g id="textblocktransform"><svg viewBox="0 0 395.52 141.40066346619477" height="141.40066346619477" width="395.52" id="textblock"><g><svg viewBox="0 0 395.52 100.27267605633803" height="100.27267605633803" width="395.52"><g transform="matrix(1,0,0,1,0,0)"><svg width="395.52" viewBox="2.86 -36.04 142.13 36.04" height="100.27267605633803" data-palette-color="url(#f68ea08d-51e2-4b67-9049-c98d53d0b285)"><g class="wordmark-text-0" data-fill-palette-color="primary" id="text-0"></g></svg></g></svg></g><g transform="matrix(1,0,0,1,0,123.94464832901409)"><svg viewBox="0 0 395.52 17.4560151371807" height="17.4560151371807" width="395.52"><g transform="matrix(1,0,0,1,0,0)"><svg width="395.52" viewBox="1.15 -36.5 1056.8899999999999 46.65" height="17.4560151371807" data-palette-color="url(#ee5659ba-92e4-4a08-afcf-bf1ccddd355e)"></svg></g></svg></g></svg></g></svg></g><g></g></svg></g><defs></defs><mask id="ee1f1541-8af5-4e9d-8ef4-f2ff5fb5ced9"><g id="SvgjsG1767"><svg viewBox="0 0 395.52 141.40066346619477" height="141.40066346619477" width="395.52"><g><svg viewBox="0 0 395.52 141.40066346619477" height="141.40066346619477" width="395.52"><g><svg viewBox="0 0 395.52 141.40066346619477" height="141.40066346619477" width="395.52"><g id="SvgjsG1766"><svg viewBox="0 0 395.52 141.40066346619477" height="141.40066346619477" width="395.52" id="SvgjsSvg1765"><g><svg viewBox="0 0 395.52 100.27267605633803" height="100.27267605633803" width="395.52"><g transform="matrix(1,0,0,1,0,0)"><svg width="395.52" viewBox="2.86 -36.04 142.13 36.04" height="100.27267605633803" data-palette-color="url(#f68ea08d-51e2-4b67-9049-c98d53d0b285)"><g class="wordmark-text-0" data-fill-palette-color="primary" id="SvgjsG1764"><path d="M14.26-32.4L33.96 0 22.49 0 2.86-32.4 14.26-32.4ZM12.26 0L2.86 0 2.86-29.32 12.26-13.92 12.26 0ZM24.56-32.4L33.96-32.4 33.96-3.08 24.56-18.55 24.56-32.4ZM39.38 0L39.38-25.93 50.19-25.93 50.19 0 39.38 0ZM39.38-29.15L39.38-36.04 50.19-36.04 50.19-29.15 39.38-29.15ZM52.41-25.93L63.64-25.93 80.9 0 69.7 0 52.41-25.93ZM73.43-13.96L67.87-22.34 69.7-25.93 80.9-25.93 73.43-13.96ZM65.4-3.64L63.64 0 52.41 0 59.61-12.35 65.4-3.64ZM112.03-19.46L112.03-6.47 105.56 0 98.33 0 98.33-6.05 101.02-6.05 101.02-19.46 98.33-19.46 98.33-25.93 105.56-25.93 112.03-19.46ZM93.82-19.46L93.82-6.05 96.62-6.05 96.62 0 89.37 0 82.9-6.47 82.9-19.46 89.37-25.93 96.62-25.93 96.62-19.46 93.82-19.46ZM127.77 0L116.88 0 116.88-25.93 127.77-25.93 127.77 0ZM134.17 0L134.17-19.46 129.53-19.46 129.53-22.29 133.14-25.93 139.15-25.93 144.99-20.09 144.99 0 134.17 0Z" fill="white"></path></g></svg></g></svg></g><g transform="matrix(1,0,0,1,0,123.94464832901409)"><svg viewBox="0 0 395.52 17.4560151371807" height="17.4560151371807" width="395.52"><g transform="matrix(1,0,0,1,0,0)"><svg width="395.52" viewBox="1.15 -36.5 1056.8899999999999 46.65" height="17.4560151371807" data-palette-color="url(#ee5659ba-92e4-4a08-afcf-bf1ccddd355e)"><path d="M23.4 0L21.05 0Q18.2 0 16.13-1.23 14.05-2.45 12.93-4.58 11.8-6.7 11.8-9.35L11.8-9.35 11.8-30.75 1.15-30.75 1.15-35 27.25-35 27.25-30.75 16.6-30.75 16.6-8.75Q16.6-6.8 17.82-5.53 19.05-4.25 21.1-4.25L21.1-4.25 23.4-4.25 23.4 0ZM34.15 0L29.55 0 29.55-36.5 34.15-36.5 34.15-22.2Q35.7-24.2 37.92-25.15 40.15-26.1 42.55-26.1L42.55-26.1Q45.95-26.1 48.45-24.68 50.95-23.25 52.35-20.7 53.75-18.15 53.75-14.75L53.75-14.75 53.75 0 49.15 0 49.15-14.7Q49.15-17 48.1-18.68 47.05-20.35 45.32-21.25 43.6-22.15 41.65-22.15L41.65-22.15Q39.7-22.15 38-21.28 36.3-20.4 35.22-18.75 34.15-17.1 34.15-14.8L34.15-14.8 34.15 0ZM80.55 0L74 0Q69.8 0 66.55-1.58 63.3-3.15 61.47-6.03 59.65-8.9 59.65-12.75L59.65-12.75Q59.65-16.55 61.2-19.58 62.75-22.6 65.5-24.35 68.25-26.1 71.9-26.1L71.9-26.1Q75.84-26.1 78.47-24.4 81.09-22.7 82.4-19.83 83.7-16.95 83.7-13.4L83.7-13.4Q83.7-12.85 83.67-12.25 83.65-11.65 83.55-11.2L83.55-11.2 64.55-11.2Q64.8-8.85 66.09-7.23 67.4-5.6 69.42-4.78 71.45-3.95 73.9-3.95L73.9-3.95 80.55-3.95 80.55 0ZM64.5-14.45L64.5-14.45 79.05-14.45Q79.05-15.4 78.84-16.48 78.65-17.55 78.15-18.57 77.65-19.6 76.82-20.43 76-21.25 74.77-21.75 73.55-22.25 71.9-22.25L71.9-22.25Q70.15-22.25 68.82-21.58 67.5-20.9 66.55-19.78 65.59-18.65 65.09-17.25 64.59-15.85 64.5-14.45ZM107.74 0L102.94 0 102.94-35 107.74-35 107.74-19.95 126.19-19.95 126.19-35 130.99-35 130.99 0 126.19 0 126.19-15.7 107.74-15.7 107.74 0ZM149.04 0.6L149.04 0.6Q145.34 0.6 142.64-1.18 139.94-2.95 138.49-6 137.04-9.05 137.04-12.75L137.04-12.75Q137.04-16.5 138.64-19.53 140.24-22.55 143.24-24.33 146.24-26.1 150.44-26.1L150.44-26.1Q154.49-26.1 157.39-24.35 160.29-22.6 161.86-19.6 163.44-16.6 163.44-12.9L163.44-12.9 163.44 0 158.79 0 158.79-5.2 158.69-5.2Q157.94-3.75 156.66-2.43 155.39-1.1 153.49-0.25 151.59 0.6 149.04 0.6ZM150.24-3.35L150.24-3.35Q152.74-3.35 154.66-4.58 156.59-5.8 157.66-7.98 158.74-10.15 158.74-12.85L158.74-12.85Q158.74-15.5 157.71-17.6 156.69-19.7 154.79-20.93 152.89-22.15 150.34-22.15L150.34-22.15Q147.64-22.15 145.71-20.9 143.79-19.65 142.76-17.53 141.74-15.4 141.74-12.7L141.74-12.7Q141.74-10.1 142.74-7.98 143.74-5.85 145.64-4.6 147.54-3.35 150.24-3.35ZM175.19 0L170.59 0 170.59-18.25Q170.59-21.65 172.51-23.58 174.44-25.5 177.84-25.5L177.84-25.5 183.09-25.5 183.09-21.55 178.69-21.55Q177.04-21.55 176.11-20.6 175.19-19.65 175.19-17.95L175.19-17.95 175.19 0ZM199.08 0.6L199.08 0.6Q202.78 0.6 205.73-1 208.68-2.6 210.41-5.63 212.13-8.65 212.13-12.9L212.13-12.9 212.13-36.5 207.53-36.5 207.53-20.95 207.43-20.95Q206.58-22.5 205.21-23.65 203.83-24.8 202.06-25.45 200.28-26.1 198.33-26.1L198.33-26.1Q194.78-26.1 191.98-24.5 189.18-22.9 187.56-19.98 185.93-17.05 185.93-13.05L185.93-13.05Q185.93-9.9 186.91-7.38 187.88-4.85 189.63-3.05 191.38-1.25 193.78-0.33 196.18 0.6 199.08 0.6ZM199.08-3.35L199.08-3.35Q196.73-3.35 194.81-4.5 192.88-5.65 191.73-7.75 190.58-9.85 190.58-12.75L190.58-12.75Q190.58-15.55 191.71-17.65 192.83-19.75 194.73-20.95 196.63-22.15 199.03-22.15L199.03-22.15Q201.38-22.15 203.31-21 205.23-19.85 206.36-17.73 207.48-15.6 207.48-12.7L207.48-12.7Q207.48-9.85 206.36-7.75 205.23-5.65 203.31-4.5 201.38-3.35 199.08-3.35ZM238.78 0L232.23 0Q228.03 0 224.78-1.58 221.53-3.15 219.71-6.03 217.88-8.9 217.88-12.75L217.88-12.75Q217.88-16.55 219.43-19.58 220.98-22.6 223.73-24.35 226.48-26.1 230.13-26.1L230.13-26.1Q234.08-26.1 236.71-24.4 239.33-22.7 240.63-19.83 241.93-16.95 241.93-13.4L241.93-13.4Q241.93-12.85 241.91-12.25 241.88-11.65 241.78-11.2L241.78-11.2 222.78-11.2Q223.03-8.85 224.33-7.23 225.63-5.6 227.66-4.78 229.68-3.95 232.13-3.95L232.13-3.95 238.78-3.95 238.78 0ZM222.73-14.45L222.73-14.45 237.28-14.45Q237.28-15.4 237.08-16.48 236.88-17.55 236.38-18.57 235.88-19.6 235.06-20.43 234.23-21.25 233.01-21.75 231.78-22.25 230.13-22.25L230.13-22.25Q228.38-22.25 227.06-21.58 225.73-20.9 224.78-19.78 223.83-18.65 223.33-17.25 222.83-15.85 222.73-14.45ZM260.18 0L247.43 0 247.43-3.95 259.63-3.95Q260.83-3.95 261.7-4.48 262.58-5 263.03-5.85 263.48-6.7 263.48-7.65L263.48-7.65Q263.48-8.55 263.08-9.33 262.68-10.1 261.85-10.58 261.03-11.05 259.88-11.05L259.88-11.05 254.73-11.05Q252.28-11.05 250.45-11.88 248.63-12.7 247.6-14.3 246.58-15.9 246.58-18.2L246.58-18.2Q246.58-20.15 247.53-21.8 248.48-23.45 250.18-24.48 251.88-25.5 254.08-25.5L254.08-25.5 265.83-25.5 265.83-21.55 254.53-21.55Q252.98-21.55 252.08-20.6 251.18-19.65 251.18-18.35L251.18-18.35Q251.18-17.1 252.1-16.18 253.03-15.25 254.73-15.25L254.73-15.25 259.63-15.25Q262.38-15.25 264.25-14.38 266.13-13.5 267.1-11.85 268.08-10.2 268.08-7.8L268.08-7.8Q268.08-5.75 267.08-3.98 266.08-2.2 264.3-1.1 262.53 0 260.18 0L260.18 0ZM288.08 0L282.08 0Q278.68 0 276.75-1.95 274.83-3.9 274.83-7.25L274.83-7.25 274.83-31.9 279.43-31.9 279.43-7.55Q279.43-5.9 280.35-4.93 281.28-3.95 282.93-3.95L282.93-3.95 288.08-3.95 288.08 0ZM288.18-21.55L270.43-21.55 270.43-25.5 288.18-25.5 288.18-21.55ZM322.32 0L319.32 0Q315.37 0 312.27-1.7 309.17-3.4 307.37-6.28 305.57-9.15 305.57-12.75L305.57-12.75Q305.57-16.35 307.37-19.23 309.17-22.1 312.27-23.8 315.37-25.5 319.32-25.5L319.32-25.5 322.32-25.5 322.32-21.55 319.17-21.55Q316.62-21.55 314.6-20.38 312.57-19.2 311.4-17.2 310.22-15.2 310.22-12.75L310.22-12.75Q310.22-10.3 311.4-8.3 312.57-6.3 314.6-5.13 316.62-3.95 319.17-3.95L319.17-3.95 322.32-3.95 322.32 0ZM332.17 0L327.57 0 327.57-36.5 332.17-36.5 332.17-22.2Q333.72-24.2 335.94-25.15 338.17-26.1 340.57-26.1L340.57-26.1Q343.97-26.1 346.47-24.68 348.97-23.25 350.37-20.7 351.77-18.15 351.77-14.75L351.77-14.75 351.77 0 347.17 0 347.17-14.7Q347.17-17 346.12-18.68 345.07-20.35 343.34-21.25 341.62-22.15 339.67-22.15L339.67-22.15Q337.72-22.15 336.02-21.28 334.32-20.4 333.24-18.75 332.17-17.1 332.17-14.8L332.17-14.8 332.17 0ZM371.07 0.6L371.07 0.6Q367.17 0.6 364.17-1.18 361.17-2.95 359.42-5.98 357.67-9 357.67-12.75L357.67-12.75Q357.67-16.5 359.42-19.53 361.17-22.55 364.17-24.33 367.17-26.1 371.07-26.1L371.07-26.1Q374.97-26.1 377.99-24.33 381.02-22.55 382.74-19.53 384.47-16.5 384.47-12.75L384.47-12.75Q384.47-9 382.74-5.98 381.02-2.95 377.99-1.18 374.97 0.6 371.07 0.6ZM371.07-3.35L371.07-3.35Q373.72-3.35 375.67-4.6 377.62-5.85 378.72-7.98 379.82-10.1 379.82-12.75L379.82-12.75Q379.82-15.4 378.72-17.53 377.62-19.65 375.67-20.9 373.72-22.15 371.07-22.15L371.07-22.15Q368.47-22.15 366.49-20.9 364.52-19.65 363.42-17.53 362.32-15.4 362.32-12.75L362.32-12.75Q362.32-10.1 363.42-7.98 364.52-5.85 366.49-4.6 368.47-3.35 371.07-3.35ZM395.01 0L390.36 0 390.36-25.5 395.01-25.5 395.01 0ZM392.71-29.55L392.71-29.55Q391.46-29.55 390.54-30.48 389.61-31.4 389.61-32.65L389.61-32.65Q389.61-33.9 390.54-34.83 391.46-35.75 392.71-35.75L392.71-35.75Q393.96-35.75 394.89-34.83 395.81-33.9 395.81-32.65L395.81-32.65Q395.81-31.4 394.89-30.48 393.96-29.55 392.71-29.55ZM417.61 0L414.61 0Q410.66 0 407.56-1.7 404.46-3.4 402.66-6.28 400.86-9.15 400.86-12.75L400.86-12.75Q400.86-16.35 402.66-19.23 404.46-22.1 407.56-23.8 410.66-25.5 414.61-25.5L414.61-25.5 417.61-25.5 417.61-21.55 414.46-21.55Q411.91-21.55 409.89-20.38 407.86-19.2 406.69-17.2 405.51-15.2 405.51-12.75L405.51-12.75Q405.51-10.3 406.69-8.3 407.86-6.3 409.89-5.13 411.91-3.95 414.46-3.95L414.46-3.95 417.61-3.95 417.61 0ZM442.36 0L435.81 0Q431.61 0 428.36-1.58 425.11-3.15 423.28-6.03 421.46-8.9 421.46-12.75L421.46-12.75Q421.46-16.55 423.01-19.58 424.56-22.6 427.31-24.35 430.06-26.1 433.71-26.1L433.71-26.1Q437.66-26.1 440.28-24.4 442.91-22.7 444.21-19.83 445.51-16.95 445.51-13.4L445.51-13.4Q445.51-12.85 445.48-12.25 445.46-11.65 445.36-11.2L445.36-11.2 426.36-11.2Q426.61-8.85 427.91-7.23 429.21-5.6 431.23-4.78 433.26-3.95 435.71-3.95L435.71-3.95 442.36-3.95 442.36 0ZM426.31-14.45L426.31-14.45 440.86-14.45Q440.86-15.4 440.66-16.48 440.46-17.55 439.96-18.57 439.46-19.6 438.63-20.43 437.81-21.25 436.58-21.75 435.36-22.25 433.71-22.25L433.71-22.25Q431.96-22.25 430.63-21.58 429.31-20.9 428.36-19.78 427.41-18.65 426.91-17.25 426.41-15.85 426.31-14.45ZM469.05 0L464.45 0 464.45-18.25Q464.45-21.65 466.38-23.58 468.3-25.5 471.7-25.5L471.7-25.5 476.95-25.5 476.95-21.55 472.55-21.55Q470.9-21.55 469.98-20.6 469.05-19.65 469.05-17.95L469.05-17.95 469.05 0ZM500.7 0L494.15 0Q489.95 0 486.7-1.58 483.45-3.15 481.63-6.03 479.8-8.9 479.8-12.75L479.8-12.75Q479.8-16.55 481.35-19.58 482.9-22.6 485.65-24.35 488.4-26.1 492.05-26.1L492.05-26.1Q496-26.1 498.63-24.4 501.25-22.7 502.55-19.83 503.85-16.95 503.85-13.4L503.85-13.4Q503.85-12.85 503.83-12.25 503.8-11.65 503.7-11.2L503.7-11.2 484.7-11.2Q484.95-8.85 486.25-7.23 487.55-5.6 489.58-4.78 491.6-3.95 494.05-3.95L494.05-3.95 500.7-3.95 500.7 0ZM484.65-14.45L484.65-14.45 499.2-14.45Q499.2-15.4 499-16.48 498.8-17.55 498.3-18.57 497.8-19.6 496.98-20.43 496.15-21.25 494.93-21.75 493.7-22.25 492.05-22.25L492.05-22.25Q490.3-22.25 488.98-21.58 487.65-20.9 486.7-19.78 485.75-18.65 485.25-17.25 484.75-15.85 484.65-14.45ZM524 10.15L519.45 10.15 519.45-0.25 524-0.25 524 10.15ZM521.7 0.6L521.7 0.6Q517.8 0.6 514.8-1.18 511.8-2.95 510.05-5.98 508.3-9 508.3-12.75L508.3-12.75Q508.3-16.5 510.05-19.53 511.8-22.55 514.8-24.33 517.8-26.1 521.7-26.1L521.7-26.1Q525.6-26.1 528.62-24.33 531.65-22.55 533.37-19.53 535.1-16.5 535.1-12.75L535.1-12.75Q535.1-9 533.37-5.98 531.65-2.95 528.62-1.18 525.6 0.6 521.7 0.6ZM521.7-3.35L521.7-3.35Q524.35-3.35 526.3-4.6 528.25-5.85 529.35-7.98 530.45-10.1 530.45-12.75L530.45-12.75Q530.45-15.4 529.35-17.53 528.25-19.65 526.3-20.9 524.35-22.15 521.7-22.15L521.7-22.15Q519.1-22.15 517.12-20.9 515.15-19.65 514.05-17.53 512.95-15.4 512.95-12.75L512.95-12.75Q512.95-10.1 514.05-7.98 515.15-5.85 517.12-4.6 519.1-3.35 521.7-3.35ZM552.95 0.6L552.95 0.6Q549.5 0.6 546.77-0.83 544.05-2.25 542.52-4.8 541-7.35 541-10.75L541-10.75 541-25.5 545.65-25.5 545.65-10.8Q545.65-8.5 546.65-6.83 547.65-5.15 549.32-4.25 551-3.35 552.9-3.35L552.9-3.35Q554.85-3.35 556.52-4.25 558.2-5.15 559.22-6.83 560.25-8.5 560.25-10.8L560.25-10.8 560.25-25.5 564.9-25.5 564.9-10.75Q564.9-7.35 563.35-4.8 561.8-2.25 559.1-0.83 556.4 0.6 552.95 0.6ZM576.84 0L572.19 0 572.19-25.5 576.84-25.5 576.84 0ZM574.54-29.55L574.54-29.55Q573.29-29.55 572.37-30.48 571.44-31.4 571.44-32.65L571.44-32.65Q571.44-33.9 572.37-34.83 573.29-35.75 574.54-35.75L574.54-35.75Q575.79-35.75 576.72-34.83 577.64-33.9 577.64-32.65L577.64-32.65Q577.64-31.4 576.72-30.48 575.79-29.55 574.54-29.55ZM588.54 0L583.94 0 583.94-18.25Q583.94-21.65 585.87-23.58 587.79-25.5 591.19-25.5L591.19-25.5 596.44-25.5 596.44-21.55 592.04-21.55Q590.39-21.55 589.47-20.6 588.54-19.65 588.54-17.95L588.54-17.95 588.54 0ZM620.19 0L613.64 0Q609.44 0 606.19-1.58 602.94-3.15 601.11-6.03 599.29-8.9 599.29-12.75L599.29-12.75Q599.29-16.55 600.84-19.58 602.39-22.6 605.14-24.35 607.89-26.1 611.54-26.1L611.54-26.1Q615.49-26.1 618.11-24.4 620.74-22.7 622.04-19.83 623.34-16.95 623.34-13.4L623.34-13.4Q623.34-12.85 623.31-12.25 623.29-11.65 623.19-11.2L623.19-11.2 604.19-11.2Q604.44-8.85 605.74-7.23 607.04-5.6 609.06-4.78 611.09-3.95 613.54-3.95L613.54-3.95 620.19-3.95 620.19 0ZM604.14-14.45L604.14-14.45 618.69-14.45Q618.69-15.4 618.49-16.48 618.29-17.55 617.79-18.57 617.29-19.6 616.46-20.43 615.64-21.25 614.41-21.75 613.19-22.25 611.54-22.25L611.54-22.25Q609.79-22.25 608.46-21.58 607.14-20.9 606.19-19.78 605.24-18.65 604.74-17.25 604.24-15.85 604.14-14.45ZM657.13 0L651.13 0Q647.73 0 645.81-1.95 643.88-3.9 643.88-7.25L643.88-7.25 643.88-31.9 648.48-31.9 648.48-7.55Q648.48-5.9 649.41-4.93 650.33-3.95 651.98-3.95L651.98-3.95 657.13-3.95 657.13 0ZM657.23-21.55L639.48-21.55 639.48-25.5 657.23-25.5 657.23-21.55ZM667.38 0L662.78 0 662.78-36.5 667.38-36.5 667.38-22.2Q668.93-24.2 671.15-25.15 673.38-26.1 675.78-26.1L675.78-26.1Q679.18-26.1 681.68-24.68 684.18-23.25 685.58-20.7 686.98-18.15 686.98-14.75L686.98-14.75 686.98 0 682.38 0 682.38-14.7Q682.38-17 681.33-18.68 680.28-20.35 678.55-21.25 676.83-22.15 674.88-22.15L674.88-22.15Q672.93-22.15 671.23-21.28 669.53-20.4 668.45-18.75 667.38-17.1 667.38-14.8L667.38-14.8 667.38 0ZM713.78 0L707.23 0Q703.03 0 699.78-1.58 696.53-3.15 694.7-6.03 692.88-8.9 692.88-12.75L692.88-12.75Q692.88-16.55 694.43-19.58 695.98-22.6 698.73-24.35 701.48-26.1 705.13-26.1L705.13-26.1Q709.08-26.1 711.7-24.4 714.33-22.7 715.63-19.83 716.93-16.95 716.93-13.4L716.93-13.4Q716.93-12.85 716.9-12.25 716.88-11.65 716.78-11.2L716.78-11.2 697.78-11.2Q698.03-8.85 699.33-7.23 700.63-5.6 702.65-4.78 704.68-3.95 707.13-3.95L707.13-3.95 713.78-3.95 713.78 0ZM697.73-14.45L697.73-14.45 712.28-14.45Q712.28-15.4 712.08-16.48 711.88-17.55 711.38-18.57 710.88-19.6 710.05-20.43 709.23-21.25 708-21.75 706.78-22.25 705.13-22.25L705.13-22.25Q703.38-22.25 702.05-21.58 700.73-20.9 699.78-19.78 698.83-18.65 698.33-17.25 697.83-15.85 697.73-14.45ZM748.42 0L735.67 0 735.67-3.95 747.87-3.95Q749.07-3.95 749.95-4.48 750.82-5 751.27-5.85 751.72-6.7 751.72-7.65L751.72-7.65Q751.72-8.55 751.32-9.33 750.92-10.1 750.1-10.58 749.27-11.05 748.12-11.05L748.12-11.05 742.97-11.05Q740.52-11.05 738.7-11.88 736.87-12.7 735.85-14.3 734.82-15.9 734.82-18.2L734.82-18.2Q734.82-20.15 735.77-21.8 736.72-23.45 738.42-24.48 740.12-25.5 742.32-25.5L742.32-25.5 754.07-25.5 754.07-21.55 742.77-21.55Q741.22-21.55 740.32-20.6 739.42-19.65 739.42-18.35L739.42-18.35Q739.42-17.1 740.35-16.18 741.27-15.25 742.97-15.25L742.97-15.25 747.87-15.25Q750.62-15.25 752.5-14.38 754.37-13.5 755.35-11.85 756.32-10.2 756.32-7.8L756.32-7.8Q756.32-5.75 755.32-3.98 754.32-2.2 752.55-1.1 750.77 0 748.42 0L748.42 0ZM776.32 0L770.32 0Q766.92 0 764.99-1.95 763.07-3.9 763.07-7.25L763.07-7.25 763.07-31.9 767.67-31.9 767.67-7.55Q767.67-5.9 768.59-4.93 769.52-3.95 771.17-3.95L771.17-3.95 776.32-3.95 776.32 0ZM776.42-21.55L758.67-21.55 758.67-25.5 776.42-25.5 776.42-21.55ZM786.42 0L781.82 0 781.82-18.25Q781.82-21.65 783.74-23.58 785.67-25.5 789.07-25.5L789.07-25.5 794.32-25.5 794.32-21.55 789.92-21.55Q788.27-21.55 787.34-20.6 786.42-19.65 786.42-17.95L786.42-17.95 786.42 0ZM810.56 0.6L810.56 0.6Q806.66 0.6 803.66-1.18 800.66-2.95 798.91-5.98 797.16-9 797.16-12.75L797.16-12.75Q797.16-16.5 798.91-19.53 800.66-22.55 803.66-24.33 806.66-26.1 810.56-26.1L810.56-26.1Q814.46-26.1 817.49-24.33 820.51-22.55 822.24-19.53 823.96-16.5 823.96-12.75L823.96-12.75Q823.96-9 822.24-5.98 820.51-2.95 817.49-1.18 814.46 0.6 810.56 0.6ZM810.56-3.35L810.56-3.35Q813.21-3.35 815.16-4.6 817.11-5.85 818.21-7.98 819.31-10.1 819.31-12.75L819.31-12.75Q819.31-15.4 818.21-17.53 817.11-19.65 815.16-20.9 813.21-22.15 810.56-22.15L810.56-22.15Q807.96-22.15 805.99-20.9 804.01-19.65 802.91-17.53 801.81-15.4 801.81-12.75L801.81-12.75Q801.81-10.1 802.91-7.98 804.01-5.85 805.99-4.6 807.96-3.35 810.56-3.35ZM834.46 0L829.86 0 829.86-14.75Q829.86-18.15 831.39-20.7 832.91-23.25 835.61-24.68 838.31-26.1 841.76-26.1L841.76-26.1Q845.26-26.1 847.94-24.68 850.61-23.25 852.14-20.7 853.66-18.15 853.66-14.75L853.66-14.75 853.66 0 849.06 0 849.06-14.7Q849.06-17 848.04-18.68 847.01-20.35 845.34-21.25 843.66-22.15 841.76-22.15L841.76-22.15Q839.86-22.15 838.19-21.25 836.51-20.35 835.49-18.68 834.46-17 834.46-14.7L834.46-14.7 834.46 0ZM878.16 10.15L864.81 10.15 864.81 6.2 877.31 6.2Q879.16 6.2 880.18 5.1 881.21 4 881.21 2.2L881.21 2.2 881.21-4.8 881.11-4.8Q880.16-3.35 878.81-2.2 877.46-1.05 875.71-0.38 873.96 0.3 871.76 0.3L871.76 0.3Q868.16 0.3 865.41-1.38 862.66-3.05 861.11-6.03 859.56-9 859.56-12.85L859.56-12.85Q859.56-16.6 861.11-19.6 862.66-22.6 865.58-24.35 868.51-26.1 872.66-26.1L872.66-26.1Q876.66-26.1 879.61-24.4 882.56-22.7 884.18-19.68 885.81-16.65 885.81-12.6L885.81-12.6 885.81 2.5Q885.81 6 883.76 8.08 881.71 10.15 878.16 10.15L878.16 10.15ZM872.61-3.65L872.61-3.65Q875.16-3.65 877.08-4.85 879.01-6.05 880.08-8.13 881.16-10.2 881.16-12.8L881.16-12.8Q881.16-15.45 880.11-17.55 879.06-19.65 877.16-20.88 875.26-22.1 872.61-22.1L872.61-22.1Q870.01-22.1 868.13-20.88 866.26-19.65 865.23-17.53 864.21-15.4 864.21-12.75L864.21-12.75Q864.21-10.25 865.23-8.18 866.26-6.1 868.13-4.88 870.01-3.65 872.61-3.65ZM912.46 0L905.91 0Q901.71 0 898.46-1.58 895.21-3.15 893.38-6.03 891.56-8.9 891.56-12.75L891.56-12.75Q891.56-16.55 893.11-19.58 894.66-22.6 897.41-24.35 900.16-26.1 903.81-26.1L903.81-26.1Q907.76-26.1 910.38-24.4 913.01-22.7 914.31-19.83 915.61-16.95 915.61-13.4L915.61-13.4Q915.61-12.85 915.58-12.25 915.56-11.65 915.46-11.2L915.46-11.2 896.46-11.2Q896.71-8.85 898.01-7.23 899.31-5.6 901.33-4.78 903.36-3.95 905.81-3.95L905.81-3.95 912.46-3.95 912.46 0ZM896.41-14.45L896.41-14.45 910.96-14.45Q910.96-15.4 910.76-16.48 910.56-17.55 910.06-18.57 909.56-19.6 908.73-20.43 907.91-21.25 906.68-21.75 905.46-22.25 903.81-22.25L903.81-22.25Q902.06-22.25 900.73-21.58 899.41-20.9 898.46-19.78 897.51-18.65 897.01-17.25 896.51-15.85 896.41-14.45ZM933.85 0L921.1 0 921.1-3.95 933.3-3.95Q934.5-3.95 935.38-4.48 936.25-5 936.7-5.85 937.15-6.7 937.15-7.65L937.15-7.65Q937.15-8.55 936.75-9.33 936.35-10.1 935.53-10.58 934.7-11.05 933.55-11.05L933.55-11.05 928.4-11.05Q925.95-11.05 924.13-11.88 922.3-12.7 921.28-14.3 920.25-15.9 920.25-18.2L920.25-18.2Q920.25-20.15 921.2-21.8 922.15-23.45 923.85-24.48 925.55-25.5 927.75-25.5L927.75-25.5 939.5-25.5 939.5-21.55 928.2-21.55Q926.65-21.55 925.75-20.6 924.85-19.65 924.85-18.35L924.85-18.35Q924.85-17.1 925.78-16.18 926.7-15.25 928.4-15.25L928.4-15.25 933.3-15.25Q936.05-15.25 937.93-14.38 939.8-13.5 940.78-11.85 941.75-10.2 941.75-7.8L941.75-7.8Q941.75-5.75 940.75-3.98 939.75-2.2 937.98-1.1 936.2 0 933.85 0L933.85 0ZM961.75 0L955.75 0Q952.35 0 950.43-1.95 948.5-3.9 948.5-7.25L948.5-7.25 948.5-31.9 953.1-31.9 953.1-7.55Q953.1-5.9 954.03-4.93 954.95-3.95 956.6-3.95L956.6-3.95 961.75-3.95 961.75 0ZM961.85-21.55L944.1-21.55 944.1-25.5 961.85-25.5 961.85-21.55ZM989.2 0.6L989.2 0.6Q986.8 0.6 984.87-0.33 982.95-1.25 981.8-3.23 980.65-5.2 980.65-8.3L980.65-8.3 980.65-25.5 985.25-25.5 985.25-7.5Q985.25-6.15 985.8-5.2 986.35-4.25 987.25-3.8 988.15-3.35 989.15-3.35L989.15-3.35Q990.15-3.35 991.05-3.83 991.95-4.3 992.52-5.23 993.1-6.15 993.1-7.5L993.1-7.5 993.1-17.4Q993.1-20.35 994.2-22.28 995.3-24.2 997.2-25.15 999.1-26.1 1001.5-26.1L1001.5-26.1Q1003.9-26.1 1005.8-25.15 1007.7-24.2 1008.8-22.28 1009.9-20.35 1009.9-17.4L1009.9-17.4 1009.9-7.5Q1009.9-6.15 1010.45-5.23 1011-4.3 1011.9-3.83 1012.8-3.35 1013.85-3.35L1013.85-3.35Q1014.9-3.35 1015.75-3.83 1016.6-4.3 1017.15-5.23 1017.7-6.15 1017.7-7.5L1017.7-7.5 1017.7-25.5 1022.35-25.5 1022.35-8.3Q1022.35-5.2 1021.2-3.23 1020.05-1.25 1018.12-0.33 1016.2 0.6 1013.85 0.6L1013.85 0.6Q1011.55 0.6 1009.6-0.33 1007.65-1.25 1006.47-3.23 1005.3-5.2 1005.3-8.3L1005.3-8.3 1005.3-18.1Q1005.3-19.5 1004.75-20.4 1004.2-21.3 1003.35-21.73 1002.5-22.15 1001.5-22.15L1001.5-22.15Q1000.5-22.15 999.62-21.73 998.75-21.3 998.22-20.4 997.7-19.5 997.7-18.1L997.7-18.1 997.7-8.3Q997.7-5.2 996.52-3.23 995.35-1.25 993.42-0.33 991.5 0.6 989.2 0.6ZM1034.29 0L1029.64 0 1029.64-25.5 1034.29-25.5 1034.29 0ZM1031.99-29.55L1031.99-29.55Q1030.74-29.55 1029.82-30.48 1028.89-31.4 1028.89-32.65L1028.89-32.65Q1028.89-33.9 1029.82-34.83 1030.74-35.75 1031.99-35.75L1031.99-35.75Q1033.24-35.75 1034.17-34.83 1035.09-33.9 1035.09-32.65L1035.09-32.65Q1035.09-31.4 1034.17-30.48 1033.24-29.55 1031.99-29.55ZM1046.14 0L1041.54 0 1041.54-36.5 1046.14-36.5 1046.14 0ZM1058.04 0L1053.44 0 1053.44-36.5 1058.04-36.5 1058.04 0Z" opacity="1" transform="matrix(1,0,0,1,0,0)" fill="black" class="slogan-text-1" id="SvgjsPath1763"></path></svg></g></svg></g></svg></g></svg></g><g></g></svg></g><defs><mask></mask></defs></svg><rect width="395.52" height="141.40066346619477" fill="black" stroke="none" visibility="hidden"></rect></g></mask><linearGradient x1="0.054" x2="0.941" y1="0.5" y2="0.5" id="f68ea08d-51e2-4b67-9049-c98d53d0b285"><stop stop-color="#9c7945" offset="0"></stop><stop stop-color="#faf3aa" offset="0.498"></stop><stop stop-color="#9c7945" offset="1"></stop></linearGradient><rect width="395.52" height="141.40066346619477" fill="url(#f68ea08d-51e2-4b67-9049-c98d53d0b285)" mask="url(#ee1f1541-8af5-4e9d-8ef4-f2ff5fb5ced9)" data-fill-palette-color="primary"></rect><mask id="9a6b7882-83e4-4217-aec6-a536d71b63be"><g id="SvgjsG1777"><svg viewBox="0 0 395.52 141.40066346619477" height="141.40066346619477" width="395.52"><g><svg viewBox="0 0 395.52 141.40066346619477" height="141.40066346619477" width="395.52"><g><svg viewBox="0 0 395.52 141.40066346619477" height="141.40066346619477" width="395.52"><g id="SvgjsG1776"><svg viewBox="0 0 395.52 141.40066346619477" height="141.40066346619477" width="395.52" id="SvgjsSvg1775"><g><svg viewBox="0 0 395.52 100.27267605633803" height="100.27267605633803" width="395.52"><g transform="matrix(1,0,0,1,0,0)"><svg width="395.52" viewBox="2.86 -36.04 142.13 36.04" height="100.27267605633803" data-palette-color="url(#f68ea08d-51e2-4b67-9049-c98d53d0b285)"><g class="wordmark-text-0" data-fill-palette-color="primary" id="SvgjsG1774"></g></svg></g></svg></g><g transform="matrix(1,0,0,1,0,123.94464832901409)"><svg viewBox="0 0 395.52 17.4560151371807" height="17.4560151371807" width="395.52"><g transform="matrix(1,0,0,1,0,0)"><svg width="395.52" viewBox="1.15 -36.5 1056.8899999999999 46.65" height="17.4560151371807" data-palette-color="url(#ee5659ba-92e4-4a08-afcf-bf1ccddd355e)"><path d="M23.4 0L21.05 0Q18.2 0 16.13-1.23 14.05-2.45 12.93-4.58 11.8-6.7 11.8-9.35L11.8-9.35 11.8-30.75 1.15-30.75 1.15-35 27.25-35 27.25-30.75 16.6-30.75 16.6-8.75Q16.6-6.8 17.82-5.53 19.05-4.25 21.1-4.25L21.1-4.25 23.4-4.25 23.4 0ZM34.15 0L29.55 0 29.55-36.5 34.15-36.5 34.15-22.2Q35.7-24.2 37.92-25.15 40.15-26.1 42.55-26.1L42.55-26.1Q45.95-26.1 48.45-24.68 50.95-23.25 52.35-20.7 53.75-18.15 53.75-14.75L53.75-14.75 53.75 0 49.15 0 49.15-14.7Q49.15-17 48.1-18.68 47.05-20.35 45.32-21.25 43.6-22.15 41.65-22.15L41.65-22.15Q39.7-22.15 38-21.28 36.3-20.4 35.22-18.75 34.15-17.1 34.15-14.8L34.15-14.8 34.15 0ZM80.55 0L74 0Q69.8 0 66.55-1.58 63.3-3.15 61.47-6.03 59.65-8.9 59.65-12.75L59.65-12.75Q59.65-16.55 61.2-19.58 62.75-22.6 65.5-24.35 68.25-26.1 71.9-26.1L71.9-26.1Q75.84-26.1 78.47-24.4 81.09-22.7 82.4-19.83 83.7-16.95 83.7-13.4L83.7-13.4Q83.7-12.85 83.67-12.25 83.65-11.65 83.55-11.2L83.55-11.2 64.55-11.2Q64.8-8.85 66.09-7.23 67.4-5.6 69.42-4.78 71.45-3.95 73.9-3.95L73.9-3.95 80.55-3.95 80.55 0ZM64.5-14.45L64.5-14.45 79.05-14.45Q79.05-15.4 78.84-16.48 78.65-17.55 78.15-18.57 77.65-19.6 76.82-20.43 76-21.25 74.77-21.75 73.55-22.25 71.9-22.25L71.9-22.25Q70.15-22.25 68.82-21.58 67.5-20.9 66.55-19.78 65.59-18.65 65.09-17.25 64.59-15.85 64.5-14.45ZM107.74 0L102.94 0 102.94-35 107.74-35 107.74-19.95 126.19-19.95 126.19-35 130.99-35 130.99 0 126.19 0 126.19-15.7 107.74-15.7 107.74 0ZM149.04 0.6L149.04 0.6Q145.34 0.6 142.64-1.18 139.94-2.95 138.49-6 137.04-9.05 137.04-12.75L137.04-12.75Q137.04-16.5 138.64-19.53 140.24-22.55 143.24-24.33 146.24-26.1 150.44-26.1L150.44-26.1Q154.49-26.1 157.39-24.35 160.29-22.6 161.86-19.6 163.44-16.6 163.44-12.9L163.44-12.9 163.44 0 158.79 0 158.79-5.2 158.69-5.2Q157.94-3.75 156.66-2.43 155.39-1.1 153.49-0.25 151.59 0.6 149.04 0.6ZM150.24-3.35L150.24-3.35Q152.74-3.35 154.66-4.58 156.59-5.8 157.66-7.98 158.74-10.15 158.74-12.85L158.74-12.85Q158.74-15.5 157.71-17.6 156.69-19.7 154.79-20.93 152.89-22.15 150.34-22.15L150.34-22.15Q147.64-22.15 145.71-20.9 143.79-19.65 142.76-17.53 141.74-15.4 141.74-12.7L141.74-12.7Q141.74-10.1 142.74-7.98 143.74-5.85 145.64-4.6 147.54-3.35 150.24-3.35ZM175.19 0L170.59 0 170.59-18.25Q170.59-21.65 172.51-23.58 174.44-25.5 177.84-25.5L177.84-25.5 183.09-25.5 183.09-21.55 178.69-21.55Q177.04-21.55 176.11-20.6 175.19-19.65 175.19-17.95L175.19-17.95 175.19 0ZM199.08 0.6L199.08 0.6Q202.78 0.6 205.73-1 208.68-2.6 210.41-5.63 212.13-8.65 212.13-12.9L212.13-12.9 212.13-36.5 207.53-36.5 207.53-20.95 207.43-20.95Q206.58-22.5 205.21-23.65 203.83-24.8 202.06-25.45 200.28-26.1 198.33-26.1L198.33-26.1Q194.78-26.1 191.98-24.5 189.18-22.9 187.56-19.98 185.93-17.05 185.93-13.05L185.93-13.05Q185.93-9.9 186.91-7.38 187.88-4.85 189.63-3.05 191.38-1.25 193.78-0.33 196.18 0.6 199.08 0.6ZM199.08-3.35L199.08-3.35Q196.73-3.35 194.81-4.5 192.88-5.65 191.73-7.75 190.58-9.85 190.58-12.75L190.58-12.75Q190.58-15.55 191.71-17.65 192.83-19.75 194.73-20.95 196.63-22.15 199.03-22.15L199.03-22.15Q201.38-22.15 203.31-21 205.23-19.85 206.36-17.73 207.48-15.6 207.48-12.7L207.48-12.7Q207.48-9.85 206.36-7.75 205.23-5.65 203.31-4.5 201.38-3.35 199.08-3.35ZM238.78 0L232.23 0Q228.03 0 224.78-1.58 221.53-3.15 219.71-6.03 217.88-8.9 217.88-12.75L217.88-12.75Q217.88-16.55 219.43-19.58 220.98-22.6 223.73-24.35 226.48-26.1 230.13-26.1L230.13-26.1Q234.08-26.1 236.71-24.4 239.33-22.7 240.63-19.83 241.93-16.95 241.93-13.4L241.93-13.4Q241.93-12.85 241.91-12.25 241.88-11.65 241.78-11.2L241.78-11.2 222.78-11.2Q223.03-8.85 224.33-7.23 225.63-5.6 227.66-4.78 229.68-3.95 232.13-3.95L232.13-3.95 238.78-3.95 238.78 0ZM222.73-14.45L222.73-14.45 237.28-14.45Q237.28-15.4 237.08-16.48 236.88-17.55 236.38-18.57 235.88-19.6 235.06-20.43 234.23-21.25 233.01-21.75 231.78-22.25 230.13-22.25L230.13-22.25Q228.38-22.25 227.06-21.58 225.73-20.9 224.78-19.78 223.83-18.65 223.33-17.25 222.83-15.85 222.73-14.45ZM260.18 0L247.43 0 247.43-3.95 259.63-3.95Q260.83-3.95 261.7-4.48 262.58-5 263.03-5.85 263.48-6.7 263.48-7.65L263.48-7.65Q263.48-8.55 263.08-9.33 262.68-10.1 261.85-10.58 261.03-11.05 259.88-11.05L259.88-11.05 254.73-11.05Q252.28-11.05 250.45-11.88 248.63-12.7 247.6-14.3 246.58-15.9 246.58-18.2L246.58-18.2Q246.58-20.15 247.53-21.8 248.48-23.45 250.18-24.48 251.88-25.5 254.08-25.5L254.08-25.5 265.83-25.5 265.83-21.55 254.53-21.55Q252.98-21.55 252.08-20.6 251.18-19.65 251.18-18.35L251.18-18.35Q251.18-17.1 252.1-16.18 253.03-15.25 254.73-15.25L254.73-15.25 259.63-15.25Q262.38-15.25 264.25-14.38 266.13-13.5 267.1-11.85 268.08-10.2 268.08-7.8L268.08-7.8Q268.08-5.75 267.08-3.98 266.08-2.2 264.3-1.1 262.53 0 260.18 0L260.18 0ZM288.08 0L282.08 0Q278.68 0 276.75-1.95 274.83-3.9 274.83-7.25L274.83-7.25 274.83-31.9 279.43-31.9 279.43-7.55Q279.43-5.9 280.35-4.93 281.28-3.95 282.93-3.95L282.93-3.95 288.08-3.95 288.08 0ZM288.18-21.55L270.43-21.55 270.43-25.5 288.18-25.5 288.18-21.55ZM322.32 0L319.32 0Q315.37 0 312.27-1.7 309.17-3.4 307.37-6.28 305.57-9.15 305.57-12.75L305.57-12.75Q305.57-16.35 307.37-19.23 309.17-22.1 312.27-23.8 315.37-25.5 319.32-25.5L319.32-25.5 322.32-25.5 322.32-21.55 319.17-21.55Q316.62-21.55 314.6-20.38 312.57-19.2 311.4-17.2 310.22-15.2 310.22-12.75L310.22-12.75Q310.22-10.3 311.4-8.3 312.57-6.3 314.6-5.13 316.62-3.95 319.17-3.95L319.17-3.95 322.32-3.95 322.32 0ZM332.17 0L327.57 0 327.57-36.5 332.17-36.5 332.17-22.2Q333.72-24.2 335.94-25.15 338.17-26.1 340.57-26.1L340.57-26.1Q343.97-26.1 346.47-24.68 348.97-23.25 350.37-20.7 351.77-18.15 351.77-14.75L351.77-14.75 351.77 0 347.17 0 347.17-14.7Q347.17-17 346.12-18.68 345.07-20.35 343.34-21.25 341.62-22.15 339.67-22.15L339.67-22.15Q337.72-22.15 336.02-21.28 334.32-20.4 333.24-18.75 332.17-17.1 332.17-14.8L332.17-14.8 332.17 0ZM371.07 0.6L371.07 0.6Q367.17 0.6 364.17-1.18 361.17-2.95 359.42-5.98 357.67-9 357.67-12.75L357.67-12.75Q357.67-16.5 359.42-19.53 361.17-22.55 364.17-24.33 367.17-26.1 371.07-26.1L371.07-26.1Q374.97-26.1 377.99-24.33 381.02-22.55 382.74-19.53 384.47-16.5 384.47-12.75L384.47-12.75Q384.47-9 382.74-5.98 381.02-2.95 377.99-1.18 374.97 0.6 371.07 0.6ZM371.07-3.35L371.07-3.35Q373.72-3.35 375.67-4.6 377.62-5.85 378.72-7.98 379.82-10.1 379.82-12.75L379.82-12.75Q379.82-15.4 378.72-17.53 377.62-19.65 375.67-20.9 373.72-22.15 371.07-22.15L371.07-22.15Q368.47-22.15 366.49-20.9 364.52-19.65 363.42-17.53 362.32-15.4 362.32-12.75L362.32-12.75Q362.32-10.1 363.42-7.98 364.52-5.85 366.49-4.6 368.47-3.35 371.07-3.35ZM395.01 0L390.36 0 390.36-25.5 395.01-25.5 395.01 0ZM392.71-29.55L392.71-29.55Q391.46-29.55 390.54-30.48 389.61-31.4 389.61-32.65L389.61-32.65Q389.61-33.9 390.54-34.83 391.46-35.75 392.71-35.75L392.71-35.75Q393.96-35.75 394.89-34.83 395.81-33.9 395.81-32.65L395.81-32.65Q395.81-31.4 394.89-30.48 393.96-29.55 392.71-29.55ZM417.61 0L414.61 0Q410.66 0 407.56-1.7 404.46-3.4 402.66-6.28 400.86-9.15 400.86-12.75L400.86-12.75Q400.86-16.35 402.66-19.23 404.46-22.1 407.56-23.8 410.66-25.5 414.61-25.5L414.61-25.5 417.61-25.5 417.61-21.55 414.46-21.55Q411.91-21.55 409.89-20.38 407.86-19.2 406.69-17.2 405.51-15.2 405.51-12.75L405.51-12.75Q405.51-10.3 406.69-8.3 407.86-6.3 409.89-5.13 411.91-3.95 414.46-3.95L414.46-3.95 417.61-3.95 417.61 0ZM442.36 0L435.81 0Q431.61 0 428.36-1.58 425.11-3.15 423.28-6.03 421.46-8.9 421.46-12.75L421.46-12.75Q421.46-16.55 423.01-19.58 424.56-22.6 427.31-24.35 430.06-26.1 433.71-26.1L433.71-26.1Q437.66-26.1 440.28-24.4 442.91-22.7 444.21-19.83 445.51-16.95 445.51-13.4L445.51-13.4Q445.51-12.85 445.48-12.25 445.46-11.65 445.36-11.2L445.36-11.2 426.36-11.2Q426.61-8.85 427.91-7.23 429.21-5.6 431.23-4.78 433.26-3.95 435.71-3.95L435.71-3.95 442.36-3.95 442.36 0ZM426.31-14.45L426.31-14.45 440.86-14.45Q440.86-15.4 440.66-16.48 440.46-17.55 439.96-18.57 439.46-19.6 438.63-20.43 437.81-21.25 436.58-21.75 435.36-22.25 433.71-22.25L433.71-22.25Q431.96-22.25 430.63-21.58 429.31-20.9 428.36-19.78 427.41-18.65 426.91-17.25 426.41-15.85 426.31-14.45ZM469.05 0L464.45 0 464.45-18.25Q464.45-21.65 466.38-23.58 468.3-25.5 471.7-25.5L471.7-25.5 476.95-25.5 476.95-21.55 472.55-21.55Q470.9-21.55 469.98-20.6 469.05-19.65 469.05-17.95L469.05-17.95 469.05 0ZM500.7 0L494.15 0Q489.95 0 486.7-1.58 483.45-3.15 481.63-6.03 479.8-8.9 479.8-12.75L479.8-12.75Q479.8-16.55 481.35-19.58 482.9-22.6 485.65-24.35 488.4-26.1 492.05-26.1L492.05-26.1Q496-26.1 498.63-24.4 501.25-22.7 502.55-19.83 503.85-16.95 503.85-13.4L503.85-13.4Q503.85-12.85 503.83-12.25 503.8-11.65 503.7-11.2L503.7-11.2 484.7-11.2Q484.95-8.85 486.25-7.23 487.55-5.6 489.58-4.78 491.6-3.95 494.05-3.95L494.05-3.95 500.7-3.95 500.7 0ZM484.65-14.45L484.65-14.45 499.2-14.45Q499.2-15.4 499-16.48 498.8-17.55 498.3-18.57 497.8-19.6 496.98-20.43 496.15-21.25 494.93-21.75 493.7-22.25 492.05-22.25L492.05-22.25Q490.3-22.25 488.98-21.58 487.65-20.9 486.7-19.78 485.75-18.65 485.25-17.25 484.75-15.85 484.65-14.45ZM524 10.15L519.45 10.15 519.45-0.25 524-0.25 524 10.15ZM521.7 0.6L521.7 0.6Q517.8 0.6 514.8-1.18 511.8-2.95 510.05-5.98 508.3-9 508.3-12.75L508.3-12.75Q508.3-16.5 510.05-19.53 511.8-22.55 514.8-24.33 517.8-26.1 521.7-26.1L521.7-26.1Q525.6-26.1 528.62-24.33 531.65-22.55 533.37-19.53 535.1-16.5 535.1-12.75L535.1-12.75Q535.1-9 533.37-5.98 531.65-2.95 528.62-1.18 525.6 0.6 521.7 0.6ZM521.7-3.35L521.7-3.35Q524.35-3.35 526.3-4.6 528.25-5.85 529.35-7.98 530.45-10.1 530.45-12.75L530.45-12.75Q530.45-15.4 529.35-17.53 528.25-19.65 526.3-20.9 524.35-22.15 521.7-22.15L521.7-22.15Q519.1-22.15 517.12-20.9 515.15-19.65 514.05-17.53 512.95-15.4 512.95-12.75L512.95-12.75Q512.95-10.1 514.05-7.98 515.15-5.85 517.12-4.6 519.1-3.35 521.7-3.35ZM552.95 0.6L552.95 0.6Q549.5 0.6 546.77-0.83 544.05-2.25 542.52-4.8 541-7.35 541-10.75L541-10.75 541-25.5 545.65-25.5 545.65-10.8Q545.65-8.5 546.65-6.83 547.65-5.15 549.32-4.25 551-3.35 552.9-3.35L552.9-3.35Q554.85-3.35 556.52-4.25 558.2-5.15 559.22-6.83 560.25-8.5 560.25-10.8L560.25-10.8 560.25-25.5 564.9-25.5 564.9-10.75Q564.9-7.35 563.35-4.8 561.8-2.25 559.1-0.83 556.4 0.6 552.95 0.6ZM576.84 0L572.19 0 572.19-25.5 576.84-25.5 576.84 0ZM574.54-29.55L574.54-29.55Q573.29-29.55 572.37-30.48 571.44-31.4 571.44-32.65L571.44-32.65Q571.44-33.9 572.37-34.83 573.29-35.75 574.54-35.75L574.54-35.75Q575.79-35.75 576.72-34.83 577.64-33.9 577.64-32.65L577.64-32.65Q577.64-31.4 576.72-30.48 575.79-29.55 574.54-29.55ZM588.54 0L583.94 0 583.94-18.25Q583.94-21.65 585.87-23.58 587.79-25.5 591.19-25.5L591.19-25.5 596.44-25.5 596.44-21.55 592.04-21.55Q590.39-21.55 589.47-20.6 588.54-19.65 588.54-17.95L588.54-17.95 588.54 0ZM620.19 0L613.64 0Q609.44 0 606.19-1.58 602.94-3.15 601.11-6.03 599.29-8.9 599.29-12.75L599.29-12.75Q599.29-16.55 600.84-19.58 602.39-22.6 605.14-24.35 607.89-26.1 611.54-26.1L611.54-26.1Q615.49-26.1 618.11-24.4 620.74-22.7 622.04-19.83 623.34-16.95 623.34-13.4L623.34-13.4Q623.34-12.85 623.31-12.25 623.29-11.65 623.19-11.2L623.19-11.2 604.19-11.2Q604.44-8.85 605.74-7.23 607.04-5.6 609.06-4.78 611.09-3.95 613.54-3.95L613.54-3.95 620.19-3.95 620.19 0ZM604.14-14.45L604.14-14.45 618.69-14.45Q618.69-15.4 618.49-16.48 618.29-17.55 617.79-18.57 617.29-19.6 616.46-20.43 615.64-21.25 614.41-21.75 613.19-22.25 611.54-22.25L611.54-22.25Q609.79-22.25 608.46-21.58 607.14-20.9 606.19-19.78 605.24-18.65 604.74-17.25 604.24-15.85 604.14-14.45ZM657.13 0L651.13 0Q647.73 0 645.81-1.95 643.88-3.9 643.88-7.25L643.88-7.25 643.88-31.9 648.48-31.9 648.48-7.55Q648.48-5.9 649.41-4.93 650.33-3.95 651.98-3.95L651.98-3.95 657.13-3.95 657.13 0ZM657.23-21.55L639.48-21.55 639.48-25.5 657.23-25.5 657.23-21.55ZM667.38 0L662.78 0 662.78-36.5 667.38-36.5 667.38-22.2Q668.93-24.2 671.15-25.15 673.38-26.1 675.78-26.1L675.78-26.1Q679.18-26.1 681.68-24.68 684.18-23.25 685.58-20.7 686.98-18.15 686.98-14.75L686.98-14.75 686.98 0 682.38 0 682.38-14.7Q682.38-17 681.33-18.68 680.28-20.35 678.55-21.25 676.83-22.15 674.88-22.15L674.88-22.15Q672.93-22.15 671.23-21.28 669.53-20.4 668.45-18.75 667.38-17.1 667.38-14.8L667.38-14.8 667.38 0ZM713.78 0L707.23 0Q703.03 0 699.78-1.58 696.53-3.15 694.7-6.03 692.88-8.9 692.88-12.75L692.88-12.75Q692.88-16.55 694.43-19.58 695.98-22.6 698.73-24.35 701.48-26.1 705.13-26.1L705.13-26.1Q709.08-26.1 711.7-24.4 714.33-22.7 715.63-19.83 716.93-16.95 716.93-13.4L716.93-13.4Q716.93-12.85 716.9-12.25 716.88-11.65 716.78-11.2L716.78-11.2 697.78-11.2Q698.03-8.85 699.33-7.23 700.63-5.6 702.65-4.78 704.68-3.95 707.13-3.95L707.13-3.95 713.78-3.95 713.78 0ZM697.73-14.45L697.73-14.45 712.28-14.45Q712.28-15.4 712.08-16.48 711.88-17.55 711.38-18.57 710.88-19.6 710.05-20.43 709.23-21.25 708-21.75 706.78-22.25 705.13-22.25L705.13-22.25Q703.38-22.25 702.05-21.58 700.73-20.9 699.78-19.78 698.83-18.65 698.33-17.25 697.83-15.85 697.73-14.45ZM748.42 0L735.67 0 735.67-3.95 747.87-3.95Q749.07-3.95 749.95-4.48 750.82-5 751.27-5.85 751.72-6.7 751.72-7.65L751.72-7.65Q751.72-8.55 751.32-9.33 750.92-10.1 750.1-10.58 749.27-11.05 748.12-11.05L748.12-11.05 742.97-11.05Q740.52-11.05 738.7-11.88 736.87-12.7 735.85-14.3 734.82-15.9 734.82-18.2L734.82-18.2Q734.82-20.15 735.77-21.8 736.72-23.45 738.42-24.48 740.12-25.5 742.32-25.5L742.32-25.5 754.07-25.5 754.07-21.55 742.77-21.55Q741.22-21.55 740.32-20.6 739.42-19.65 739.42-18.35L739.42-18.35Q739.42-17.1 740.35-16.18 741.27-15.25 742.97-15.25L742.97-15.25 747.87-15.25Q750.62-15.25 752.5-14.38 754.37-13.5 755.35-11.85 756.32-10.2 756.32-7.8L756.32-7.8Q756.32-5.75 755.32-3.98 754.32-2.2 752.55-1.1 750.77 0 748.42 0L748.42 0ZM776.32 0L770.32 0Q766.92 0 764.99-1.95 763.07-3.9 763.07-7.25L763.07-7.25 763.07-31.9 767.67-31.9 767.67-7.55Q767.67-5.9 768.59-4.93 769.52-3.95 771.17-3.95L771.17-3.95 776.32-3.95 776.32 0ZM776.42-21.55L758.67-21.55 758.67-25.5 776.42-25.5 776.42-21.55ZM786.42 0L781.82 0 781.82-18.25Q781.82-21.65 783.74-23.58 785.67-25.5 789.07-25.5L789.07-25.5 794.32-25.5 794.32-21.55 789.92-21.55Q788.27-21.55 787.34-20.6 786.42-19.65 786.42-17.95L786.42-17.95 786.42 0ZM810.56 0.6L810.56 0.6Q806.66 0.6 803.66-1.18 800.66-2.95 798.91-5.98 797.16-9 797.16-12.75L797.16-12.75Q797.16-16.5 798.91-19.53 800.66-22.55 803.66-24.33 806.66-26.1 810.56-26.1L810.56-26.1Q814.46-26.1 817.49-24.33 820.51-22.55 822.24-19.53 823.96-16.5 823.96-12.75L823.96-12.75Q823.96-9 822.24-5.98 820.51-2.95 817.49-1.18 814.46 0.6 810.56 0.6ZM810.56-3.35L810.56-3.35Q813.21-3.35 815.16-4.6 817.11-5.85 818.21-7.98 819.31-10.1 819.31-12.75L819.31-12.75Q819.31-15.4 818.21-17.53 817.11-19.65 815.16-20.9 813.21-22.15 810.56-22.15L810.56-22.15Q807.96-22.15 805.99-20.9 804.01-19.65 802.91-17.53 801.81-15.4 801.81-12.75L801.81-12.75Q801.81-10.1 802.91-7.98 804.01-5.85 805.99-4.6 807.96-3.35 810.56-3.35ZM834.46 0L829.86 0 829.86-14.75Q829.86-18.15 831.39-20.7 832.91-23.25 835.61-24.68 838.31-26.1 841.76-26.1L841.76-26.1Q845.26-26.1 847.94-24.68 850.61-23.25 852.14-20.7 853.66-18.15 853.66-14.75L853.66-14.75 853.66 0 849.06 0 849.06-14.7Q849.06-17 848.04-18.68 847.01-20.35 845.34-21.25 843.66-22.15 841.76-22.15L841.76-22.15Q839.86-22.15 838.19-21.25 836.51-20.35 835.49-18.68 834.46-17 834.46-14.7L834.46-14.7 834.46 0ZM878.16 10.15L864.81 10.15 864.81 6.2 877.31 6.2Q879.16 6.2 880.18 5.1 881.21 4 881.21 2.2L881.21 2.2 881.21-4.8 881.11-4.8Q880.16-3.35 878.81-2.2 877.46-1.05 875.71-0.38 873.96 0.3 871.76 0.3L871.76 0.3Q868.16 0.3 865.41-1.38 862.66-3.05 861.11-6.03 859.56-9 859.56-12.85L859.56-12.85Q859.56-16.6 861.11-19.6 862.66-22.6 865.58-24.35 868.51-26.1 872.66-26.1L872.66-26.1Q876.66-26.1 879.61-24.4 882.56-22.7 884.18-19.68 885.81-16.65 885.81-12.6L885.81-12.6 885.81 2.5Q885.81 6 883.76 8.08 881.71 10.15 878.16 10.15L878.16 10.15ZM872.61-3.65L872.61-3.65Q875.16-3.65 877.08-4.85 879.01-6.05 880.08-8.13 881.16-10.2 881.16-12.8L881.16-12.8Q881.16-15.45 880.11-17.55 879.06-19.65 877.16-20.88 875.26-22.1 872.61-22.1L872.61-22.1Q870.01-22.1 868.13-20.88 866.26-19.65 865.23-17.53 864.21-15.4 864.21-12.75L864.21-12.75Q864.21-10.25 865.23-8.18 866.26-6.1 868.13-4.88 870.01-3.65 872.61-3.65ZM912.46 0L905.91 0Q901.71 0 898.46-1.58 895.21-3.15 893.38-6.03 891.56-8.9 891.56-12.75L891.56-12.75Q891.56-16.55 893.11-19.58 894.66-22.6 897.41-24.35 900.16-26.1 903.81-26.1L903.81-26.1Q907.76-26.1 910.38-24.4 913.01-22.7 914.31-19.83 915.61-16.95 915.61-13.4L915.61-13.4Q915.61-12.85 915.58-12.25 915.56-11.65 915.46-11.2L915.46-11.2 896.46-11.2Q896.71-8.85 898.01-7.23 899.31-5.6 901.33-4.78 903.36-3.95 905.81-3.95L905.81-3.95 912.46-3.95 912.46 0ZM896.41-14.45L896.41-14.45 910.96-14.45Q910.96-15.4 910.76-16.48 910.56-17.55 910.06-18.57 909.56-19.6 908.73-20.43 907.91-21.25 906.68-21.75 905.46-22.25 903.81-22.25L903.81-22.25Q902.06-22.25 900.73-21.58 899.41-20.9 898.46-19.78 897.51-18.65 897.01-17.25 896.51-15.85 896.41-14.45ZM933.85 0L921.1 0 921.1-3.95 933.3-3.95Q934.5-3.95 935.38-4.48 936.25-5 936.7-5.85 937.15-6.7 937.15-7.65L937.15-7.65Q937.15-8.55 936.75-9.33 936.35-10.1 935.53-10.58 934.7-11.05 933.55-11.05L933.55-11.05 928.4-11.05Q925.95-11.05 924.13-11.88 922.3-12.7 921.28-14.3 920.25-15.9 920.25-18.2L920.25-18.2Q920.25-20.15 921.2-21.8 922.15-23.45 923.85-24.48 925.55-25.5 927.75-25.5L927.75-25.5 939.5-25.5 939.5-21.55 928.2-21.55Q926.65-21.55 925.75-20.6 924.85-19.65 924.85-18.35L924.85-18.35Q924.85-17.1 925.78-16.18 926.7-15.25 928.4-15.25L928.4-15.25 933.3-15.25Q936.05-15.25 937.93-14.38 939.8-13.5 940.78-11.85 941.75-10.2 941.75-7.8L941.75-7.8Q941.75-5.75 940.75-3.98 939.75-2.2 937.98-1.1 936.2 0 933.85 0L933.85 0ZM961.75 0L955.75 0Q952.35 0 950.43-1.95 948.5-3.9 948.5-7.25L948.5-7.25 948.5-31.9 953.1-31.9 953.1-7.55Q953.1-5.9 954.03-4.93 954.95-3.95 956.6-3.95L956.6-3.95 961.75-3.95 961.75 0ZM961.85-21.55L944.1-21.55 944.1-25.5 961.85-25.5 961.85-21.55ZM989.2 0.6L989.2 0.6Q986.8 0.6 984.87-0.33 982.95-1.25 981.8-3.23 980.65-5.2 980.65-8.3L980.65-8.3 980.65-25.5 985.25-25.5 985.25-7.5Q985.25-6.15 985.8-5.2 986.35-4.25 987.25-3.8 988.15-3.35 989.15-3.35L989.15-3.35Q990.15-3.35 991.05-3.83 991.95-4.3 992.52-5.23 993.1-6.15 993.1-7.5L993.1-7.5 993.1-17.4Q993.1-20.35 994.2-22.28 995.3-24.2 997.2-25.15 999.1-26.1 1001.5-26.1L1001.5-26.1Q1003.9-26.1 1005.8-25.15 1007.7-24.2 1008.8-22.28 1009.9-20.35 1009.9-17.4L1009.9-17.4 1009.9-7.5Q1009.9-6.15 1010.45-5.23 1011-4.3 1011.9-3.83 1012.8-3.35 1013.85-3.35L1013.85-3.35Q1014.9-3.35 1015.75-3.83 1016.6-4.3 1017.15-5.23 1017.7-6.15 1017.7-7.5L1017.7-7.5 1017.7-25.5 1022.35-25.5 1022.35-8.3Q1022.35-5.2 1021.2-3.23 1020.05-1.25 1018.12-0.33 1016.2 0.6 1013.85 0.6L1013.85 0.6Q1011.55 0.6 1009.6-0.33 1007.65-1.25 1006.47-3.23 1005.3-5.2 1005.3-8.3L1005.3-8.3 1005.3-18.1Q1005.3-19.5 1004.75-20.4 1004.2-21.3 1003.35-21.73 1002.5-22.15 1001.5-22.15L1001.5-22.15Q1000.5-22.15 999.62-21.73 998.75-21.3 998.22-20.4 997.7-19.5 997.7-18.1L997.7-18.1 997.7-8.3Q997.7-5.2 996.52-3.23 995.35-1.25 993.42-0.33 991.5 0.6 989.2 0.6ZM1034.29 0L1029.64 0 1029.64-25.5 1034.29-25.5 1034.29 0ZM1031.99-29.55L1031.99-29.55Q1030.74-29.55 1029.82-30.48 1028.89-31.4 1028.89-32.65L1028.89-32.65Q1028.89-33.9 1029.82-34.83 1030.74-35.75 1031.99-35.75L1031.99-35.75Q1033.24-35.75 1034.17-34.83 1035.09-33.9 1035.09-32.65L1035.09-32.65Q1035.09-31.4 1034.17-30.48 1033.24-29.55 1031.99-29.55ZM1046.14 0L1041.54 0 1041.54-36.5 1046.14-36.5 1046.14 0ZM1058.04 0L1053.44 0 1053.44-36.5 1058.04-36.5 1058.04 0Z" opacity="1" transform="matrix(1,0,0,1,0,0)" fill="white" class="slogan-text-1" id="SvgjsPath1773"></path></svg></g></svg></g></svg></g></svg></g><g></g></svg></g><defs><mask></mask></defs><mask><g id="SvgjsG1772"><svg viewBox="0 0 395.52 141.40066346619477" height="141.40066346619477" width="395.52"><g><svg viewBox="0 0 395.52 141.40066346619477" height="141.40066346619477" width="395.52"><g><svg viewBox="0 0 395.52 141.40066346619477" height="141.40066346619477" width="395.52"><g id="SvgjsG1771"><svg viewBox="0 0 395.52 141.40066346619477" height="141.40066346619477" width="395.52" id="SvgjsSvg1770"><g><svg viewBox="0 0 395.52 100.27267605633803" height="100.27267605633803" width="395.52"><g transform="matrix(1,0,0,1,0,0)"><svg width="395.52" viewBox="2.86 -36.04 142.13 36.04" height="100.27267605633803" data-palette-color="url(#f68ea08d-51e2-4b67-9049-c98d53d0b285)"><g class="wordmark-text-0" data-fill-palette-color="primary" id="SvgjsG1769"><path d="M14.26-32.4L33.96 0 22.49 0 2.86-32.4 14.26-32.4ZM12.26 0L2.86 0 2.86-29.32 12.26-13.92 12.26 0ZM24.56-32.4L33.96-32.4 33.96-3.08 24.56-18.55 24.56-32.4ZM39.38 0L39.38-25.93 50.19-25.93 50.19 0 39.38 0ZM39.38-29.15L39.38-36.04 50.19-36.04 50.19-29.15 39.38-29.15ZM52.41-25.93L63.64-25.93 80.9 0 69.7 0 52.41-25.93ZM73.43-13.96L67.87-22.34 69.7-25.93 80.9-25.93 73.43-13.96ZM65.4-3.64L63.64 0 52.41 0 59.61-12.35 65.4-3.64ZM112.03-19.46L112.03-6.47 105.56 0 98.33 0 98.33-6.05 101.02-6.05 101.02-19.46 98.33-19.46 98.33-25.93 105.56-25.93 112.03-19.46ZM93.82-19.46L93.82-6.05 96.62-6.05 96.62 0 89.37 0 82.9-6.47 82.9-19.46 89.37-25.93 96.62-25.93 96.62-19.46 93.82-19.46ZM127.77 0L116.88 0 116.88-25.93 127.77-25.93 127.77 0ZM134.17 0L134.17-19.46 129.53-19.46 129.53-22.29 133.14-25.93 139.15-25.93 144.99-20.09 144.99 0 134.17 0Z" fill="black"></path></g></svg></g></svg></g><g transform="matrix(1,0,0,1,0,123.94464832901409)"><svg viewBox="0 0 395.52 17.4560151371807" height="17.4560151371807" width="395.52"><g transform="matrix(1,0,0,1,0,0)"><svg width="395.52" viewBox="1.15 -36.5 1056.8899999999999 46.65" height="17.4560151371807" data-palette-color="url(#ee5659ba-92e4-4a08-afcf-bf1ccddd355e)"><path d="M23.4 0L21.05 0Q18.2 0 16.13-1.23 14.05-2.45 12.93-4.58 11.8-6.7 11.8-9.35L11.8-9.35 11.8-30.75 1.15-30.75 1.15-35 27.25-35 27.25-30.75 16.6-30.75 16.6-8.75Q16.6-6.8 17.82-5.53 19.05-4.25 21.1-4.25L21.1-4.25 23.4-4.25 23.4 0ZM34.15 0L29.55 0 29.55-36.5 34.15-36.5 34.15-22.2Q35.7-24.2 37.92-25.15 40.15-26.1 42.55-26.1L42.55-26.1Q45.95-26.1 48.45-24.68 50.95-23.25 52.35-20.7 53.75-18.15 53.75-14.75L53.75-14.75 53.75 0 49.15 0 49.15-14.7Q49.15-17 48.1-18.68 47.05-20.35 45.32-21.25 43.6-22.15 41.65-22.15L41.65-22.15Q39.7-22.15 38-21.28 36.3-20.4 35.22-18.75 34.15-17.1 34.15-14.8L34.15-14.8 34.15 0ZM80.55 0L74 0Q69.8 0 66.55-1.58 63.3-3.15 61.47-6.03 59.65-8.9 59.65-12.75L59.65-12.75Q59.65-16.55 61.2-19.58 62.75-22.6 65.5-24.35 68.25-26.1 71.9-26.1L71.9-26.1Q75.84-26.1 78.47-24.4 81.09-22.7 82.4-19.83 83.7-16.95 83.7-13.4L83.7-13.4Q83.7-12.85 83.67-12.25 83.65-11.65 83.55-11.2L83.55-11.2 64.55-11.2Q64.8-8.85 66.09-7.23 67.4-5.6 69.42-4.78 71.45-3.95 73.9-3.95L73.9-3.95 80.55-3.95 80.55 0ZM64.5-14.45L64.5-14.45 79.05-14.45Q79.05-15.4 78.84-16.48 78.65-17.55 78.15-18.57 77.65-19.6 76.82-20.43 76-21.25 74.77-21.75 73.55-22.25 71.9-22.25L71.9-22.25Q70.15-22.25 68.82-21.58 67.5-20.9 66.55-19.78 65.59-18.65 65.09-17.25 64.59-15.85 64.5-14.45ZM107.74 0L102.94 0 102.94-35 107.74-35 107.74-19.95 126.19-19.95 126.19-35 130.99-35 130.99 0 126.19 0 126.19-15.7 107.74-15.7 107.74 0ZM149.04 0.6L149.04 0.6Q145.34 0.6 142.64-1.18 139.94-2.95 138.49-6 137.04-9.05 137.04-12.75L137.04-12.75Q137.04-16.5 138.64-19.53 140.24-22.55 143.24-24.33 146.24-26.1 150.44-26.1L150.44-26.1Q154.49-26.1 157.39-24.35 160.29-22.6 161.86-19.6 163.44-16.6 163.44-12.9L163.44-12.9 163.44 0 158.79 0 158.79-5.2 158.69-5.2Q157.94-3.75 156.66-2.43 155.39-1.1 153.49-0.25 151.59 0.6 149.04 0.6ZM150.24-3.35L150.24-3.35Q152.74-3.35 154.66-4.58 156.59-5.8 157.66-7.98 158.74-10.15 158.74-12.85L158.74-12.85Q158.74-15.5 157.71-17.6 156.69-19.7 154.79-20.93 152.89-22.15 150.34-22.15L150.34-22.15Q147.64-22.15 145.71-20.9 143.79-19.65 142.76-17.53 141.74-15.4 141.74-12.7L141.74-12.7Q141.74-10.1 142.74-7.98 143.74-5.85 145.64-4.6 147.54-3.35 150.24-3.35ZM175.19 0L170.59 0 170.59-18.25Q170.59-21.65 172.51-23.58 174.44-25.5 177.84-25.5L177.84-25.5 183.09-25.5 183.09-21.55 178.69-21.55Q177.04-21.55 176.11-20.6 175.19-19.65 175.19-17.95L175.19-17.95 175.19 0ZM199.08 0.6L199.08 0.6Q202.78 0.6 205.73-1 208.68-2.6 210.41-5.63 212.13-8.65 212.13-12.9L212.13-12.9 212.13-36.5 207.53-36.5 207.53-20.95 207.43-20.95Q206.58-22.5 205.21-23.65 203.83-24.8 202.06-25.45 200.28-26.1 198.33-26.1L198.33-26.1Q194.78-26.1 191.98-24.5 189.18-22.9 187.56-19.98 185.93-17.05 185.93-13.05L185.93-13.05Q185.93-9.9 186.91-7.38 187.88-4.85 189.63-3.05 191.38-1.25 193.78-0.33 196.18 0.6 199.08 0.6ZM199.08-3.35L199.08-3.35Q196.73-3.35 194.81-4.5 192.88-5.65 191.73-7.75 190.58-9.85 190.58-12.75L190.58-12.75Q190.58-15.55 191.71-17.65 192.83-19.75 194.73-20.95 196.63-22.15 199.03-22.15L199.03-22.15Q201.38-22.15 203.31-21 205.23-19.85 206.36-17.73 207.48-15.6 207.48-12.7L207.48-12.7Q207.48-9.85 206.36-7.75 205.23-5.65 203.31-4.5 201.38-3.35 199.08-3.35ZM238.78 0L232.23 0Q228.03 0 224.78-1.58 221.53-3.15 219.71-6.03 217.88-8.9 217.88-12.75L217.88-12.75Q217.88-16.55 219.43-19.58 220.98-22.6 223.73-24.35 226.48-26.1 230.13-26.1L230.13-26.1Q234.08-26.1 236.71-24.4 239.33-22.7 240.63-19.83 241.93-16.95 241.93-13.4L241.93-13.4Q241.93-12.85 241.91-12.25 241.88-11.65 241.78-11.2L241.78-11.2 222.78-11.2Q223.03-8.85 224.33-7.23 225.63-5.6 227.66-4.78 229.68-3.95 232.13-3.95L232.13-3.95 238.78-3.95 238.78 0ZM222.73-14.45L222.73-14.45 237.28-14.45Q237.28-15.4 237.08-16.48 236.88-17.55 236.38-18.57 235.88-19.6 235.06-20.43 234.23-21.25 233.01-21.75 231.78-22.25 230.13-22.25L230.13-22.25Q228.38-22.25 227.06-21.58 225.73-20.9 224.78-19.78 223.83-18.65 223.33-17.25 222.83-15.85 222.73-14.45ZM260.18 0L247.43 0 247.43-3.95 259.63-3.95Q260.83-3.95 261.7-4.48 262.58-5 263.03-5.85 263.48-6.7 263.48-7.65L263.48-7.65Q263.48-8.55 263.08-9.33 262.68-10.1 261.85-10.58 261.03-11.05 259.88-11.05L259.88-11.05 254.73-11.05Q252.28-11.05 250.45-11.88 248.63-12.7 247.6-14.3 246.58-15.9 246.58-18.2L246.58-18.2Q246.58-20.15 247.53-21.8 248.48-23.45 250.18-24.48 251.88-25.5 254.08-25.5L254.08-25.5 265.83-25.5 265.83-21.55 254.53-21.55Q252.98-21.55 252.08-20.6 251.18-19.65 251.18-18.35L251.18-18.35Q251.18-17.1 252.1-16.18 253.03-15.25 254.73-15.25L254.73-15.25 259.63-15.25Q262.38-15.25 264.25-14.38 266.13-13.5 267.1-11.85 268.08-10.2 268.08-7.8L268.08-7.8Q268.08-5.75 267.08-3.98 266.08-2.2 264.3-1.1 262.53 0 260.18 0L260.18 0ZM288.08 0L282.08 0Q278.68 0 276.75-1.95 274.83-3.9 274.83-7.25L274.83-7.25 274.83-31.9 279.43-31.9 279.43-7.55Q279.43-5.9 280.35-4.93 281.28-3.95 282.93-3.95L282.93-3.95 288.08-3.95 288.08 0ZM288.18-21.55L270.43-21.55 270.43-25.5 288.18-25.5 288.18-21.55ZM322.32 0L319.32 0Q315.37 0 312.27-1.7 309.17-3.4 307.37-6.28 305.57-9.15 305.57-12.75L305.57-12.75Q305.57-16.35 307.37-19.23 309.17-22.1 312.27-23.8 315.37-25.5 319.32-25.5L319.32-25.5 322.32-25.5 322.32-21.55 319.17-21.55Q316.62-21.55 314.6-20.38 312.57-19.2 311.4-17.2 310.22-15.2 310.22-12.75L310.22-12.75Q310.22-10.3 311.4-8.3 312.57-6.3 314.6-5.13 316.62-3.95 319.17-3.95L319.17-3.95 322.32-3.95 322.32 0ZM332.17 0L327.57 0 327.57-36.5 332.17-36.5 332.17-22.2Q333.72-24.2 335.94-25.15 338.17-26.1 340.57-26.1L340.57-26.1Q343.97-26.1 346.47-24.68 348.97-23.25 350.37-20.7 351.77-18.15 351.77-14.75L351.77-14.75 351.77 0 347.17 0 347.17-14.7Q347.17-17 346.12-18.68 345.07-20.35 343.34-21.25 341.62-22.15 339.67-22.15L339.67-22.15Q337.72-22.15 336.02-21.28 334.32-20.4 333.24-18.75 332.17-17.1 332.17-14.8L332.17-14.8 332.17 0ZM371.07 0.6L371.07 0.6Q367.17 0.6 364.17-1.18 361.17-2.95 359.42-5.98 357.67-9 357.67-12.75L357.67-12.75Q357.67-16.5 359.42-19.53 361.17-22.55 364.17-24.33 367.17-26.1 371.07-26.1L371.07-26.1Q374.97-26.1 377.99-24.33 381.02-22.55 382.74-19.53 384.47-16.5 384.47-12.75L384.47-12.75Q384.47-9 382.74-5.98 381.02-2.95 377.99-1.18 374.97 0.6 371.07 0.6ZM371.07-3.35L371.07-3.35Q373.72-3.35 375.67-4.6 377.62-5.85 378.72-7.98 379.82-10.1 379.82-12.75L379.82-12.75Q379.82-15.4 378.72-17.53 377.62-19.65 375.67-20.9 373.72-22.15 371.07-22.15L371.07-22.15Q368.47-22.15 366.49-20.9 364.52-19.65 363.42-17.53 362.32-15.4 362.32-12.75L362.32-12.75Q362.32-10.1 363.42-7.98 364.52-5.85 366.49-4.6 368.47-3.35 371.07-3.35ZM395.01 0L390.36 0 390.36-25.5 395.01-25.5 395.01 0ZM392.71-29.55L392.71-29.55Q391.46-29.55 390.54-30.48 389.61-31.4 389.61-32.65L389.61-32.65Q389.61-33.9 390.54-34.83 391.46-35.75 392.71-35.75L392.71-35.75Q393.96-35.75 394.89-34.83 395.81-33.9 395.81-32.65L395.81-32.65Q395.81-31.4 394.89-30.48 393.96-29.55 392.71-29.55ZM417.61 0L414.61 0Q410.66 0 407.56-1.7 404.46-3.4 402.66-6.28 400.86-9.15 400.86-12.75L400.86-12.75Q400.86-16.35 402.66-19.23 404.46-22.1 407.56-23.8 410.66-25.5 414.61-25.5L414.61-25.5 417.61-25.5 417.61-21.55 414.46-21.55Q411.91-21.55 409.89-20.38 407.86-19.2 406.69-17.2 405.51-15.2 405.51-12.75L405.51-12.75Q405.51-10.3 406.69-8.3 407.86-6.3 409.89-5.13 411.91-3.95 414.46-3.95L414.46-3.95 417.61-3.95 417.61 0ZM442.36 0L435.81 0Q431.61 0 428.36-1.58 425.11-3.15 423.28-6.03 421.46-8.9 421.46-12.75L421.46-12.75Q421.46-16.55 423.01-19.58 424.56-22.6 427.31-24.35 430.06-26.1 433.71-26.1L433.71-26.1Q437.66-26.1 440.28-24.4 442.91-22.7 444.21-19.83 445.51-16.95 445.51-13.4L445.51-13.4Q445.51-12.85 445.48-12.25 445.46-11.65 445.36-11.2L445.36-11.2 426.36-11.2Q426.61-8.85 427.91-7.23 429.21-5.6 431.23-4.78 433.26-3.95 435.71-3.95L435.71-3.95 442.36-3.95 442.36 0ZM426.31-14.45L426.31-14.45 440.86-14.45Q440.86-15.4 440.66-16.48 440.46-17.55 439.96-18.57 439.46-19.6 438.63-20.43 437.81-21.25 436.58-21.75 435.36-22.25 433.71-22.25L433.71-22.25Q431.96-22.25 430.63-21.58 429.31-20.9 428.36-19.78 427.41-18.65 426.91-17.25 426.41-15.85 426.31-14.45ZM469.05 0L464.45 0 464.45-18.25Q464.45-21.65 466.38-23.58 468.3-25.5 471.7-25.5L471.7-25.5 476.95-25.5 476.95-21.55 472.55-21.55Q470.9-21.55 469.98-20.6 469.05-19.65 469.05-17.95L469.05-17.95 469.05 0ZM500.7 0L494.15 0Q489.95 0 486.7-1.58 483.45-3.15 481.63-6.03 479.8-8.9 479.8-12.75L479.8-12.75Q479.8-16.55 481.35-19.58 482.9-22.6 485.65-24.35 488.4-26.1 492.05-26.1L492.05-26.1Q496-26.1 498.63-24.4 501.25-22.7 502.55-19.83 503.85-16.95 503.85-13.4L503.85-13.4Q503.85-12.85 503.83-12.25 503.8-11.65 503.7-11.2L503.7-11.2 484.7-11.2Q484.95-8.85 486.25-7.23 487.55-5.6 489.58-4.78 491.6-3.95 494.05-3.95L494.05-3.95 500.7-3.95 500.7 0ZM484.65-14.45L484.65-14.45 499.2-14.45Q499.2-15.4 499-16.48 498.8-17.55 498.3-18.57 497.8-19.6 496.98-20.43 496.15-21.25 494.93-21.75 493.7-22.25 492.05-22.25L492.05-22.25Q490.3-22.25 488.98-21.58 487.65-20.9 486.7-19.78 485.75-18.65 485.25-17.25 484.75-15.85 484.65-14.45ZM524 10.15L519.45 10.15 519.45-0.25 524-0.25 524 10.15ZM521.7 0.6L521.7 0.6Q517.8 0.6 514.8-1.18 511.8-2.95 510.05-5.98 508.3-9 508.3-12.75L508.3-12.75Q508.3-16.5 510.05-19.53 511.8-22.55 514.8-24.33 517.8-26.1 521.7-26.1L521.7-26.1Q525.6-26.1 528.62-24.33 531.65-22.55 533.37-19.53 535.1-16.5 535.1-12.75L535.1-12.75Q535.1-9 533.37-5.98 531.65-2.95 528.62-1.18 525.6 0.6 521.7 0.6ZM521.7-3.35L521.7-3.35Q524.35-3.35 526.3-4.6 528.25-5.85 529.35-7.98 530.45-10.1 530.45-12.75L530.45-12.75Q530.45-15.4 529.35-17.53 528.25-19.65 526.3-20.9 524.35-22.15 521.7-22.15L521.7-22.15Q519.1-22.15 517.12-20.9 515.15-19.65 514.05-17.53 512.95-15.4 512.95-12.75L512.95-12.75Q512.95-10.1 514.05-7.98 515.15-5.85 517.12-4.6 519.1-3.35 521.7-3.35ZM552.95 0.6L552.95 0.6Q549.5 0.6 546.77-0.83 544.05-2.25 542.52-4.8 541-7.35 541-10.75L541-10.75 541-25.5 545.65-25.5 545.65-10.8Q545.65-8.5 546.65-6.83 547.65-5.15 549.32-4.25 551-3.35 552.9-3.35L552.9-3.35Q554.85-3.35 556.52-4.25 558.2-5.15 559.22-6.83 560.25-8.5 560.25-10.8L560.25-10.8 560.25-25.5 564.9-25.5 564.9-10.75Q564.9-7.35 563.35-4.8 561.8-2.25 559.1-0.83 556.4 0.6 552.95 0.6ZM576.84 0L572.19 0 572.19-25.5 576.84-25.5 576.84 0ZM574.54-29.55L574.54-29.55Q573.29-29.55 572.37-30.48 571.44-31.4 571.44-32.65L571.44-32.65Q571.44-33.9 572.37-34.83 573.29-35.75 574.54-35.75L574.54-35.75Q575.79-35.75 576.72-34.83 577.64-33.9 577.64-32.65L577.64-32.65Q577.64-31.4 576.72-30.48 575.79-29.55 574.54-29.55ZM588.54 0L583.94 0 583.94-18.25Q583.94-21.65 585.87-23.58 587.79-25.5 591.19-25.5L591.19-25.5 596.44-25.5 596.44-21.55 592.04-21.55Q590.39-21.55 589.47-20.6 588.54-19.65 588.54-17.95L588.54-17.95 588.54 0ZM620.19 0L613.64 0Q609.44 0 606.19-1.58 602.94-3.15 601.11-6.03 599.29-8.9 599.29-12.75L599.29-12.75Q599.29-16.55 600.84-19.58 602.39-22.6 605.14-24.35 607.89-26.1 611.54-26.1L611.54-26.1Q615.49-26.1 618.11-24.4 620.74-22.7 622.04-19.83 623.34-16.95 623.34-13.4L623.34-13.4Q623.34-12.85 623.31-12.25 623.29-11.65 623.19-11.2L623.19-11.2 604.19-11.2Q604.44-8.85 605.74-7.23 607.04-5.6 609.06-4.78 611.09-3.95 613.54-3.95L613.54-3.95 620.19-3.95 620.19 0ZM604.14-14.45L604.14-14.45 618.69-14.45Q618.69-15.4 618.49-16.48 618.29-17.55 617.79-18.57 617.29-19.6 616.46-20.43 615.64-21.25 614.41-21.75 613.19-22.25 611.54-22.25L611.54-22.25Q609.79-22.25 608.46-21.58 607.14-20.9 606.19-19.78 605.24-18.65 604.74-17.25 604.24-15.85 604.14-14.45ZM657.13 0L651.13 0Q647.73 0 645.81-1.95 643.88-3.9 643.88-7.25L643.88-7.25 643.88-31.9 648.48-31.9 648.48-7.55Q648.48-5.9 649.41-4.93 650.33-3.95 651.98-3.95L651.98-3.95 657.13-3.95 657.13 0ZM657.23-21.55L639.48-21.55 639.48-25.5 657.23-25.5 657.23-21.55ZM667.38 0L662.78 0 662.78-36.5 667.38-36.5 667.38-22.2Q668.93-24.2 671.15-25.15 673.38-26.1 675.78-26.1L675.78-26.1Q679.18-26.1 681.68-24.68 684.18-23.25 685.58-20.7 686.98-18.15 686.98-14.75L686.98-14.75 686.98 0 682.38 0 682.38-14.7Q682.38-17 681.33-18.68 680.28-20.35 678.55-21.25 676.83-22.15 674.88-22.15L674.88-22.15Q672.93-22.15 671.23-21.28 669.53-20.4 668.45-18.75 667.38-17.1 667.38-14.8L667.38-14.8 667.38 0ZM713.78 0L707.23 0Q703.03 0 699.78-1.58 696.53-3.15 694.7-6.03 692.88-8.9 692.88-12.75L692.88-12.75Q692.88-16.55 694.43-19.58 695.98-22.6 698.73-24.35 701.48-26.1 705.13-26.1L705.13-26.1Q709.08-26.1 711.7-24.4 714.33-22.7 715.63-19.83 716.93-16.95 716.93-13.4L716.93-13.4Q716.93-12.85 716.9-12.25 716.88-11.65 716.78-11.2L716.78-11.2 697.78-11.2Q698.03-8.85 699.33-7.23 700.63-5.6 702.65-4.78 704.68-3.95 707.13-3.95L707.13-3.95 713.78-3.95 713.78 0ZM697.73-14.45L697.73-14.45 712.28-14.45Q712.28-15.4 712.08-16.48 711.88-17.55 711.38-18.57 710.88-19.6 710.05-20.43 709.23-21.25 708-21.75 706.78-22.25 705.13-22.25L705.13-22.25Q703.38-22.25 702.05-21.58 700.73-20.9 699.78-19.78 698.83-18.65 698.33-17.25 697.83-15.85 697.73-14.45ZM748.42 0L735.67 0 735.67-3.95 747.87-3.95Q749.07-3.95 749.95-4.48 750.82-5 751.27-5.85 751.72-6.7 751.72-7.65L751.72-7.65Q751.72-8.55 751.32-9.33 750.92-10.1 750.1-10.58 749.27-11.05 748.12-11.05L748.12-11.05 742.97-11.05Q740.52-11.05 738.7-11.88 736.87-12.7 735.85-14.3 734.82-15.9 734.82-18.2L734.82-18.2Q734.82-20.15 735.77-21.8 736.72-23.45 738.42-24.48 740.12-25.5 742.32-25.5L742.32-25.5 754.07-25.5 754.07-21.55 742.77-21.55Q741.22-21.55 740.32-20.6 739.42-19.65 739.42-18.35L739.42-18.35Q739.42-17.1 740.35-16.18 741.27-15.25 742.97-15.25L742.97-15.25 747.87-15.25Q750.62-15.25 752.5-14.38 754.37-13.5 755.35-11.85 756.32-10.2 756.32-7.8L756.32-7.8Q756.32-5.75 755.32-3.98 754.32-2.2 752.55-1.1 750.77 0 748.42 0L748.42 0ZM776.32 0L770.32 0Q766.92 0 764.99-1.95 763.07-3.9 763.07-7.25L763.07-7.25 763.07-31.9 767.67-31.9 767.67-7.55Q767.67-5.9 768.59-4.93 769.52-3.95 771.17-3.95L771.17-3.95 776.32-3.95 776.32 0ZM776.42-21.55L758.67-21.55 758.67-25.5 776.42-25.5 776.42-21.55ZM786.42 0L781.82 0 781.82-18.25Q781.82-21.65 783.74-23.58 785.67-25.5 789.07-25.5L789.07-25.5 794.32-25.5 794.32-21.55 789.92-21.55Q788.27-21.55 787.34-20.6 786.42-19.65 786.42-17.95L786.42-17.95 786.42 0ZM810.56 0.6L810.56 0.6Q806.66 0.6 803.66-1.18 800.66-2.95 798.91-5.98 797.16-9 797.16-12.75L797.16-12.75Q797.16-16.5 798.91-19.53 800.66-22.55 803.66-24.33 806.66-26.1 810.56-26.1L810.56-26.1Q814.46-26.1 817.49-24.33 820.51-22.55 822.24-19.53 823.96-16.5 823.96-12.75L823.96-12.75Q823.96-9 822.24-5.98 820.51-2.95 817.49-1.18 814.46 0.6 810.56 0.6ZM810.56-3.35L810.56-3.35Q813.21-3.35 815.16-4.6 817.11-5.85 818.21-7.98 819.31-10.1 819.31-12.75L819.31-12.75Q819.31-15.4 818.21-17.53 817.11-19.65 815.16-20.9 813.21-22.15 810.56-22.15L810.56-22.15Q807.96-22.15 805.99-20.9 804.01-19.65 802.91-17.53 801.81-15.4 801.81-12.75L801.81-12.75Q801.81-10.1 802.91-7.98 804.01-5.85 805.99-4.6 807.96-3.35 810.56-3.35ZM834.46 0L829.86 0 829.86-14.75Q829.86-18.15 831.39-20.7 832.91-23.25 835.61-24.68 838.31-26.1 841.76-26.1L841.76-26.1Q845.26-26.1 847.94-24.68 850.61-23.25 852.14-20.7 853.66-18.15 853.66-14.75L853.66-14.75 853.66 0 849.06 0 849.06-14.7Q849.06-17 848.04-18.68 847.01-20.35 845.34-21.25 843.66-22.15 841.76-22.15L841.76-22.15Q839.86-22.15 838.19-21.25 836.51-20.35 835.49-18.68 834.46-17 834.46-14.7L834.46-14.7 834.46 0ZM878.16 10.15L864.81 10.15 864.81 6.2 877.31 6.2Q879.16 6.2 880.18 5.1 881.21 4 881.21 2.2L881.21 2.2 881.21-4.8 881.11-4.8Q880.16-3.35 878.81-2.2 877.46-1.05 875.71-0.38 873.96 0.3 871.76 0.3L871.76 0.3Q868.16 0.3 865.41-1.38 862.66-3.05 861.11-6.03 859.56-9 859.56-12.85L859.56-12.85Q859.56-16.6 861.11-19.6 862.66-22.6 865.58-24.35 868.51-26.1 872.66-26.1L872.66-26.1Q876.66-26.1 879.61-24.4 882.56-22.7 884.18-19.68 885.81-16.65 885.81-12.6L885.81-12.6 885.81 2.5Q885.81 6 883.76 8.08 881.71 10.15 878.16 10.15L878.16 10.15ZM872.61-3.65L872.61-3.65Q875.16-3.65 877.08-4.85 879.01-6.05 880.08-8.13 881.16-10.2 881.16-12.8L881.16-12.8Q881.16-15.45 880.11-17.55 879.06-19.65 877.16-20.88 875.26-22.1 872.61-22.1L872.61-22.1Q870.01-22.1 868.13-20.88 866.26-19.65 865.23-17.53 864.21-15.4 864.21-12.75L864.21-12.75Q864.21-10.25 865.23-8.18 866.26-6.1 868.13-4.88 870.01-3.65 872.61-3.65ZM912.46 0L905.91 0Q901.71 0 898.46-1.58 895.21-3.15 893.38-6.03 891.56-8.9 891.56-12.75L891.56-12.75Q891.56-16.55 893.11-19.58 894.66-22.6 897.41-24.35 900.16-26.1 903.81-26.1L903.81-26.1Q907.76-26.1 910.38-24.4 913.01-22.7 914.31-19.83 915.61-16.95 915.61-13.4L915.61-13.4Q915.61-12.85 915.58-12.25 915.56-11.65 915.46-11.2L915.46-11.2 896.46-11.2Q896.71-8.85 898.01-7.23 899.31-5.6 901.33-4.78 903.36-3.95 905.81-3.95L905.81-3.95 912.46-3.95 912.46 0ZM896.41-14.45L896.41-14.45 910.96-14.45Q910.96-15.4 910.76-16.48 910.56-17.55 910.06-18.57 909.56-19.6 908.73-20.43 907.91-21.25 906.68-21.75 905.46-22.25 903.81-22.25L903.81-22.25Q902.06-22.25 900.73-21.58 899.41-20.9 898.46-19.78 897.51-18.65 897.01-17.25 896.51-15.85 896.41-14.45ZM933.85 0L921.1 0 921.1-3.95 933.3-3.95Q934.5-3.95 935.38-4.48 936.25-5 936.7-5.85 937.15-6.7 937.15-7.65L937.15-7.65Q937.15-8.55 936.75-9.33 936.35-10.1 935.53-10.58 934.7-11.05 933.55-11.05L933.55-11.05 928.4-11.05Q925.95-11.05 924.13-11.88 922.3-12.7 921.28-14.3 920.25-15.9 920.25-18.2L920.25-18.2Q920.25-20.15 921.2-21.8 922.15-23.45 923.85-24.48 925.55-25.5 927.75-25.5L927.75-25.5 939.5-25.5 939.5-21.55 928.2-21.55Q926.65-21.55 925.75-20.6 924.85-19.65 924.85-18.35L924.85-18.35Q924.85-17.1 925.78-16.18 926.7-15.25 928.4-15.25L928.4-15.25 933.3-15.25Q936.05-15.25 937.93-14.38 939.8-13.5 940.78-11.85 941.75-10.2 941.75-7.8L941.75-7.8Q941.75-5.75 940.75-3.98 939.75-2.2 937.98-1.1 936.2 0 933.85 0L933.85 0ZM961.75 0L955.75 0Q952.35 0 950.43-1.95 948.5-3.9 948.5-7.25L948.5-7.25 948.5-31.9 953.1-31.9 953.1-7.55Q953.1-5.9 954.03-4.93 954.95-3.95 956.6-3.95L956.6-3.95 961.75-3.95 961.75 0ZM961.85-21.55L944.1-21.55 944.1-25.5 961.85-25.5 961.85-21.55ZM989.2 0.6L989.2 0.6Q986.8 0.6 984.87-0.33 982.95-1.25 981.8-3.23 980.65-5.2 980.65-8.3L980.65-8.3 980.65-25.5 985.25-25.5 985.25-7.5Q985.25-6.15 985.8-5.2 986.35-4.25 987.25-3.8 988.15-3.35 989.15-3.35L989.15-3.35Q990.15-3.35 991.05-3.83 991.95-4.3 992.52-5.23 993.1-6.15 993.1-7.5L993.1-7.5 993.1-17.4Q993.1-20.35 994.2-22.28 995.3-24.2 997.2-25.15 999.1-26.1 1001.5-26.1L1001.5-26.1Q1003.9-26.1 1005.8-25.15 1007.7-24.2 1008.8-22.28 1009.9-20.35 1009.9-17.4L1009.9-17.4 1009.9-7.5Q1009.9-6.15 1010.45-5.23 1011-4.3 1011.9-3.83 1012.8-3.35 1013.85-3.35L1013.85-3.35Q1014.9-3.35 1015.75-3.83 1016.6-4.3 1017.15-5.23 1017.7-6.15 1017.7-7.5L1017.7-7.5 1017.7-25.5 1022.35-25.5 1022.35-8.3Q1022.35-5.2 1021.2-3.23 1020.05-1.25 1018.12-0.33 1016.2 0.6 1013.85 0.6L1013.85 0.6Q1011.55 0.6 1009.6-0.33 1007.65-1.25 1006.47-3.23 1005.3-5.2 1005.3-8.3L1005.3-8.3 1005.3-18.1Q1005.3-19.5 1004.75-20.4 1004.2-21.3 1003.35-21.73 1002.5-22.15 1001.5-22.15L1001.5-22.15Q1000.5-22.15 999.62-21.73 998.75-21.3 998.22-20.4 997.7-19.5 997.7-18.1L997.7-18.1 997.7-8.3Q997.7-5.2 996.52-3.23 995.35-1.25 993.42-0.33 991.5 0.6 989.2 0.6ZM1034.29 0L1029.64 0 1029.64-25.5 1034.29-25.5 1034.29 0ZM1031.99-29.55L1031.99-29.55Q1030.74-29.55 1029.82-30.48 1028.89-31.4 1028.89-32.65L1028.89-32.65Q1028.89-33.9 1029.82-34.83 1030.74-35.75 1031.99-35.75L1031.99-35.75Q1033.24-35.75 1034.17-34.83 1035.09-33.9 1035.09-32.65L1035.09-32.65Q1035.09-31.4 1034.17-30.48 1033.24-29.55 1031.99-29.55ZM1046.14 0L1041.54 0 1041.54-36.5 1046.14-36.5 1046.14 0ZM1058.04 0L1053.44 0 1053.44-36.5 1058.04-36.5 1058.04 0Z" opacity="1" transform="matrix(1,0,0,1,0,0)" fill="black" class="slogan-text-1" id="SvgjsPath1768"></path></svg></g></svg></g></svg></g></svg></g><g></g></svg></g><defs><mask></mask></defs></svg><rect width="395.52" height="141.40066346619477" fill="black" stroke="none" visibility="hidden"></rect></g></mask></svg><rect width="395.52" height="141.40066346619477" fill="black" stroke="none" visibility="hidden"></rect></g></mask><linearGradient x1="0.054" x2="0.941" y1="0.5" y2="0.5" id="ee5659ba-92e4-4a08-afcf-bf1ccddd355e"><stop stop-color="#9c7945" offset="0"></stop><stop stop-color="#faf3aa" offset="0.498"></stop><stop stop-color="#9c7945" offset="1"></stop></linearGradient><rect width="395.52" height="141.40066346619477" fill="url(#ee5659ba-92e4-4a08-afcf-bf1ccddd355e)" mask="url(#9a6b7882-83e4-4217-aec6-a536d71b63be)" data-fill-palette-color="secondary"></rect></svg><rect width="395.52" height="141.40066346619477" fill="none" stroke="none" visibility="hidden"></rect></g></svg></g></svg>